<?xml version="1.0" standalone="no"?>
<!DOCTYPE svg PUBLIC "-//W3C//DTD SVG 20010904//EN"
 "http://www.w3.org/TR/2001/REC-SVG-20010904/DTD/svg10.dtd">
<svg version="1.0" xmlns="http://www.w3.org/2000/svg"
 width="1024.000000pt" height="1024.000000pt" viewBox="0 0 1024.000000 1024.000000"
 preserveAspectRatio="xMidYMid meet">

<g transform="translate(0.000000,1024.000000) scale(0.100000,-0.100000)"
fill="#000000" stroke="none">
<path d="M4944 8791 c-114 -54 -169 -151 -168 -296 2 -197 119 -325 298 -325
74 0 149 32 189 79 26 31 27 37 27 151 l0 118 -62 7 c-35 4 -85 5 -113 3 l-50
-3 0 -50 0 -50 42 -3 c23 -2 43 -9 46 -16 11 -27 -6 -67 -34 -81 -65 -34 -137
-4 -171 72 -27 60 -23 169 8 210 53 71 126 90 199 53 22 -11 40 -20 41 -20 1
0 19 23 40 51 l38 52 -30 24 c-73 59 -204 69 -300 24z"/>
<path d="M5620 8761 c-139 -30 -230 -153 -238 -322 -8 -155 48 -251 172 -298
134 -50 262 -8 341 112 90 138 86 311 -10 425 -53 63 -178 102 -265 83z m134
-162 c35 -28 56 -70 56 -113 0 -55 -39 -147 -80 -188 -31 -31 -45 -38 -77 -38
-69 0 -123 63 -123 143 0 62 30 139 70 179 32 33 44 38 82 38 31 0 54 -7 72
-21z"/>
<path d="M4325 8749 c-16 -5 -90 -21 -162 -35 -105 -21 -133 -30 -132 -43 0
-9 26 -144 57 -301 l57 -285 40 3 c76 6 290 44 302 54 13 10 11 31 -8 94 l-10
31 -82 -13 c-127 -21 -122 -22 -136 42 -16 68 -17 67 88 84 42 7 80 16 84 20
5 4 4 33 -3 64 -13 65 -15 66 -129 40 -40 -9 -74 -15 -76 -13 -2 2 -6 25 -10
50 l-7 46 85 18 c116 24 113 22 98 89 -7 31 -15 57 -19 59 -4 2 -20 0 -37 -4z"/>
<path d="M6131 8626 c-53 -137 -133 -379 -138 -413 -14 -101 46 -187 151 -218
130 -39 224 3 285 125 35 69 155 370 150 374 -13 11 -125 43 -130 38 -4 -4
-19 -41 -33 -82 -94 -264 -138 -340 -202 -340 -38 0 -70 26 -79 63 -4 15 19
92 64 221 39 109 71 202 71 206 0 8 -101 50 -121 50 -5 0 -14 -11 -18 -24z"/>
<path d="M3612 8546 c-61 -20 -63 -21 -56 -51 10 -49 181 -536 192 -547 12
-12 104 12 241 63 57 22 106 41 108 42 3 4 -37 127 -42 127 -1 0 -51 -18 -110
-40 -60 -22 -109 -39 -110 -38 -1 2 -33 106 -72 232 -38 127 -74 231 -79 231
-5 1 -37 -8 -72 -19z"/>
<path d="M6707 8393 c-13 -21 -75 -130 -139 -243 -63 -113 -122 -217 -132
-232 l-18 -27 48 -31 c26 -16 53 -30 60 -30 7 0 34 41 61 92 26 50 53 93 59
95 6 2 20 -4 32 -14 19 -17 20 -25 13 -128 -4 -60 -6 -115 -4 -120 3 -10 113
-75 127 -75 3 0 6 46 6 103 0 56 3 118 6 137 5 33 8 35 47 38 123 9 205 158
148 269 -26 52 -71 87 -193 152 l-97 52 -24 -38z m123 -148 c65 -41 79 -97 35
-140 -30 -31 -72 -32 -126 -5 l-40 21 26 42 c15 23 34 57 42 75 9 17 18 32 20
32 2 0 21 -11 43 -25z"/>
<path d="M3145 8318 c-33 -17 -61 -32 -63 -33 -3 -3 40 -203 111 -514 13 -58
28 -106 34 -108 12 -4 119 42 127 55 3 5 -1 33 -10 62 -8 28 -14 53 -12 54 20
16 150 96 155 96 4 0 26 -19 50 -42 l42 -41 56 36 c30 21 55 41 55 47 0 13
-458 420 -472 420 -7 -1 -40 -15 -73 -32z m192 -231 l72 -66 -60 -37 c-33 -20
-62 -34 -64 -32 -2 2 -13 48 -24 103 -12 55 -24 109 -27 120 -5 19 -5 19 13
-1 10 -11 50 -51 90 -87z"/>
<path d="M7225 8108 c-11 -5 -36 -30 -55 -56 -19 -25 -97 -127 -173 -225
l-139 -179 20 -21 c12 -12 34 -30 50 -39 29 -17 29 -17 64 20 20 20 73 86 118
147 59 77 81 101 76 80 -15 -57 -35 -160 -42 -212 -5 -43 -4 -54 10 -59 13 -5
144 51 229 97 11 6 20 9 22 7 1 -2 -46 -64 -106 -138 -59 -74 -108 -140 -109
-146 0 -10 83 -94 94 -94 4 0 192 239 309 393 37 49 67 94 67 102 0 13 -76 85
-90 85 -4 0 -67 -29 -141 -64 -74 -35 -135 -63 -137 -61 -1 1 11 69 28 150 35
165 35 162 -37 202 -28 15 -43 18 -58 11z"/>
<path d="M2716 8015 c-67 -27 -118 -72 -149 -130 -16 -31 -22 -58 -22 -115 0
-65 4 -84 33 -142 76 -155 238 -237 386 -194 106 31 200 151 180 230 -6 26
-36 36 -105 36 -38 0 -39 -1 -39 -34 0 -71 -70 -111 -152 -87 -75 23 -157 122
-158 191 0 32 32 84 64 105 13 9 41 17 62 18 44 3 51 18 53 100 l1 47 -47 0
c-27 0 -74 -11 -107 -25z"/>
<path d="M5075 7738 c-3 -7 -6 -107 -7 -222 l-3 -208 -95 -40 c-74 -31 -103
-38 -131 -34 -44 7 -62 -9 -57 -51 3 -26 7 -29 58 -35 109 -15 367 -40 457
-45 l92 -4 35 -62 c19 -34 82 -117 140 -185 219 -255 689 -784 843 -947 l160
-171 -101 -59 c-55 -33 -118 -70 -139 -83 -22 -13 -129 -80 -239 -150 -109
-70 -204 -130 -211 -133 -7 -4 -61 -15 -121 -24 -95 -15 -243 -46 -340 -70
-27 -7 -24 -2 41 81 70 88 70 88 49 105 -12 10 -25 14 -31 9 -5 -5 -44 -56
-85 -114 -41 -58 -78 -105 -81 -106 -4 0 -16 64 -28 143 -32 210 -28 197 -62
197 -25 0 -29 -3 -24 -22 4 -21 39 -253 51 -343 6 -49 -1 -60 -46 -67 l-35 -6
3 220 c3 201 2 220 -13 214 -9 -3 -32 -6 -51 -6 l-34 0 0 -215 0 -215 -51 0
-51 0 6 33 c7 35 56 364 56 377 0 5 -12 5 -27 1 -28 -7 -28 -8 -55 -197 -15
-104 -30 -194 -32 -200 -5 -12 -96 -24 -96 -13 0 3 9 32 21 65 20 57 89 301
89 314 0 4 -13 5 -30 2 -26 -4 -31 -10 -45 -61 -39 -139 -88 -288 -101 -308
-14 -22 -19 -23 -162 -22 -140 1 -301 14 -209 18 l37 1 0 245 c0 196 -3 247
-13 251 -8 3 -45 8 -84 12 l-70 8 -29 -146 -29 -145 -30 3 c-16 2 -31 4 -32 5
-1 1 14 61 33 132 19 72 34 133 34 138 0 4 -13 7 -30 7 -24 0 -31 -5 -36 -27
-7 -31 -52 -197 -61 -227 -5 -15 -12 -17 -47 -11 -82 13 -373 35 -473 35 -126
0 -127 -2 -113 -117 14 -108 45 -195 90 -252 28 -35 44 -69 55 -116 17 -75 48
-152 82 -207 13 -21 23 -41 23 -46 0 -5 -36 -14 -80 -21 -313 -48 -866 -239
-1065 -369 -85 -55 -135 -101 -135 -124 0 -11 19 -77 42 -147 79 -238 278
-590 464 -821 87 -108 274 -295 384 -383 357 -288 825 -505 1275 -592 527
-102 1175 -29 1663 188 383 169 662 374 939 690 191 217 310 394 443 658 37
75 74 162 81 194 l13 58 -54 49 c-168 156 -469 303 -880 431 -266 83 -566 154
-755 177 -152 19 -143 5 -84 123 28 56 78 143 110 192 99 154 150 276 173 417
6 33 16 43 104 101 53 35 144 91 202 124 130 75 330 211 330 224 0 15 -39 49
-57 49 -9 0 -55 -21 -102 -46 l-86 -47 -80 85 c-190 199 -678 747 -969 1088
-50 58 -99 116 -110 129 -15 17 -17 25 -8 28 20 7 14 41 -10 57 -13 8 -53 18
-91 22 -66 7 -68 8 -103 55 -19 26 -48 59 -65 73 -22 19 -29 33 -29 60 0 48
23 53 162 36 59 -7 131 -10 160 -6 99 13 208 84 208 137 0 23 -3 23 -42 3 -56
-29 -102 -20 -193 35 -91 56 -186 86 -252 78 l-42 -4 1 44 c0 28 -5 48 -13 54
-21 13 -59 11 -64 -3z m-5 -498 c0 -25 -4 -30 -22 -29 -35 0 -106 16 -83 18
11 1 36 10 55 21 47 26 50 25 50 -10z m114 -8 l30 -32 -32 0 c-30 0 -32 2 -32
37 0 20 1 34 3 32 1 -2 15 -19 31 -37z m-874 -1807 l0 -174 -35 21 c-24 13
-34 26 -31 37 13 44 26 105 41 194 10 53 19 97 21 97 2 0 4 -79 4 -175z m-567
-142 c-7 -2 -21 -2 -30 0 -10 3 -4 5 12 5 17 0 24 -2 18 -5z m581 -175 c7 -5
5 -8 -6 -8 -14 0 -18 8 -17 33 2 27 2 28 6 7 3 -14 10 -28 17 -32z m-386 5
c-10 -2 -26 -2 -35 0 -10 3 -2 5 17 5 19 0 27 -2 18 -5z m-171 -339 c-3 -3
-12 -4 -19 -1 -8 3 -5 6 6 6 11 1 17 -2 13 -5z m50 -10 c-3 -3 -12 -4 -19 -1
-8 3 -5 6 6 6 11 1 17 -2 13 -5z m370 -20 c-3 -3 -12 -4 -19 -1 -8 3 -5 6 6 6
11 1 17 -2 13 -5z m-350 -30 c-3 -3 -12 -4 -19 -1 -8 3 -5 6 6 6 11 1 17 -2
13 -5z m-16 -203 c44 -33 109 -57 179 -66 25 -4 47 -9 49 -11 8 -7 -84 -3
-104 6 -15 6 -27 1 -51 -22 -39 -37 -89 -41 -115 -10 -20 26 -34 29 -25 6 3
-8 2 -12 -4 -9 -12 8 -190 -86 -190 -101 0 -15 41 -67 48 -60 2 3 -1 14 -9 23
-13 16 -12 17 4 4 10 -8 16 -20 13 -27 -2 -7 4 -20 14 -29 18 -17 21 -17 55 0
39 18 74 14 58 -8 -16 -20 -34 -94 -27 -111 9 -23 41 -20 58 7 17 25 24 77 13
94 -4 6 -2 15 4 19 8 4 9 3 5 -5 -6 -8 -1 -10 17 -6 18 5 28 2 35 -11 14 -25
32 -8 32 31 0 20 9 44 24 62 12 15 22 34 20 41 -1 7 0 8 3 2 3 -6 23 1 49 16
37 22 50 25 82 17 26 -6 41 -17 50 -36 10 -21 20 -27 46 -27 17 0 37 5 44 12
21 21 50 -18 58 -78 5 -43 12 -59 36 -79 18 -15 28 -31 24 -40 -6 -17 -161
-92 -226 -110 -84 -23 -59 -75 36 -75 52 0 84 17 84 43 -1 19 -26 47 -35 39
-5 -4 -5 -2 -2 4 4 6 30 14 59 18 29 3 64 9 79 12 20 4 27 1 37 -21 14 -31 15
-74 2 -95 -7 -10 -10 -11 -10 -2 0 9 -8 9 -36 -3 -20 -8 -61 -15 -90 -15 -46
0 -53 -2 -48 -17 5 -14 4 -15 -4 -4 -12 17 -74 7 -92 -14 -17 -20 -70 -19 -85
1 -17 24 -57 11 -107 -34 -22 -20 -59 -42 -82 -47 -33 -9 -43 -17 -51 -42 -12
-37 -86 -119 -115 -128 -29 -9 -50 -63 -50 -129 0 -46 -3 -56 -20 -61 -27 -8
-36 -1 -43 33 -7 33 -63 92 -88 92 -9 0 -22 -7 -30 -16 -11 -13 -29 -15 -114
-10 -80 4 -106 2 -123 -10 -26 -18 -46 -109 -37 -164 10 -61 31 -80 100 -89
33 -5 65 -6 72 -4 6 3 15 21 20 41 l9 37 66 0 c56 0 70 4 92 24 32 30 53 25
131 -31 93 -66 146 -93 129 -66 -4 7 -3 8 5 4 6 -4 9 -11 6 -16 -3 -5 11 -16
31 -25 43 -18 47 -18 39 -5 -3 6 -1 10 4 10 14 0 14 -6 1 -31 -15 -27 -46 -24
-111 10 -30 16 -82 35 -115 43 -47 12 -60 19 -62 36 -3 17 -10 22 -32 22 -49
0 -109 -30 -126 -61 -18 -35 -12 -48 50 -109 45 -43 64 -47 29 -6 -17 20 -17
20 0 7 21 -17 46 -58 28 -47 -16 10 -14 -1 7 -32 33 -52 46 -62 99 -73 61 -14
74 -8 48 21 -17 18 -17 20 -2 14 9 -3 17 -9 17 -13 0 -13 91 1 97 15 7 19 20
18 68 -5 22 -10 56 -24 75 -31 72 -25 96 -36 140 -65 25 -17 55 -42 68 -57 27
-32 86 -52 113 -38 26 14 25 15 59 -47 24 -45 30 -65 25 -91 -11 -58 28 -78
88 -47 36 19 59 8 81 -40 17 -35 34 -43 51 -26 6 6 29 1 60 -15 28 -13 62 -24
77 -24 56 0 108 -123 74 -175 -9 -14 -22 -25 -28 -25 -17 0 -48 -31 -48 -48 0
-9 7 -13 20 -9 11 3 18 1 15 -3 -3 -5 25 -12 62 -17 83 -10 559 -10 628 0 28
4 74 10 103 13 28 4 52 10 52 13 0 3 19 7 43 7 66 2 268 55 260 68 -4 6 1 5
10 -3 21 -17 22 -3 2 23 -8 11 -15 35 -15 53 0 23 -6 36 -22 45 -13 7 -26 12
-29 11 -8 -2 8 99 21 132 18 48 -2 54 -77 24 -28 -11 -34 -11 -52 6 -12 10
-21 30 -21 45 0 19 -7 30 -26 38 -22 11 -36 7 -105 -23 -86 -38 -109 -42 -138
-23 -19 11 -32 8 -63 -14 -15 -10 -24 -9 -52 6 -37 20 -127 105 -183 173 l-37
45 12 58 c9 40 9 66 2 85 -16 41 -12 84 11 116 11 16 17 29 13 29 -3 0 5 15
18 33 30 39 40 65 29 72 -5 2 -11 -4 -14 -15 -3 -11 -11 -20 -19 -20 -8 0 -9
3 -2 8 6 4 13 15 17 25 4 10 11 16 17 12 5 -3 17 -1 27 5 10 5 31 14 46 20 16
5 26 14 22 19 -3 5 0 13 6 17 8 5 9 3 4 -6 -5 -8 -3 -11 6 -8 8 3 17 26 20 56
9 72 32 104 72 102 50 -3 57 -1 57 17 0 23 -29 53 -46 46 -8 -3 -14 0 -14 7 0
6 5 8 10 5 16 -10 12 4 -12 36 -21 28 -21 33 -9 87 18 81 18 87 1 86 -17 -1
-25 32 -9 41 5 4 6 -2 2 -12 -5 -15 -3 -16 8 -5 7 7 40 12 79 12 36 0 76 6 90
13 36 18 37 45 4 58 -71 26 -63 50 25 75 31 9 67 24 81 34 61 42 159 90 183
90 15 0 44 9 64 20 40 21 73 26 73 11 0 -5 -10 -7 -22 -4 -19 5 -21 3 -10 -8
14 -15 133 -25 188 -15 25 5 34 11 30 22 -3 8 -1 14 4 14 6 0 10 -5 10 -11 0
-7 9 -5 23 5 12 9 37 23 55 32 20 9 30 19 26 26 -4 6 -3 8 4 4 6 -3 25 2 42
12 l31 19 -31 13 c-23 9 -33 10 -44 1 -7 -6 -27 -11 -42 -9 -27 2 -29 5 -32
47 -4 53 -25 91 -51 91 -23 0 -50 -58 -60 -133 -4 -32 -12 -62 -17 -66 -12
-12 -141 7 -180 25 -17 8 -41 24 -53 36 -27 24 -22 57 15 101 13 16 24 32 24
37 0 18 54 72 92 91 22 11 38 22 36 24 -2 2 -29 6 -60 9 l-57 5 -10 -36 c-6
-20 -8 -40 -5 -45 8 -12 -19 -5 -28 7 -5 6 -8 5 -8 -2 0 -7 -8 -13 -18 -13
-10 0 -24 -6 -31 -12 -8 -8 -11 -8 -8 -2 4 7 -2 14 -14 17 -17 5 -18 3 -8 -9
10 -13 5 -15 -37 -13 -27 1 -60 -1 -74 -4 -64 -13 -110 -17 -110 -7 0 5 3 9 8
9 19 -3 25 2 12 11 -10 7 4 8 45 5 42 -3 54 -2 40 5 -16 7 -10 9 25 9 25 -1
62 3 83 9 21 6 37 6 37 1 0 -15 40 -10 46 6 4 8 10 12 15 9 5 -3 6 2 3 10 -4
9 -1 16 6 16 7 0 11 9 8 23 -4 20 -1 22 36 19 150 -11 436 -62 681 -123 380
-95 710 -225 921 -364 60 -41 115 -80 122 -87 9 -11 0 -39 -42 -130 -112 -244
-227 -438 -323 -545 l-38 -42 -55 24 c-30 13 -74 24 -97 25 -36 0 -48 6 -88
47 -38 37 -50 45 -64 36 -32 -20 -24 -51 27 -105 l49 -52 59 17 59 17 27 -32
c21 -27 29 -31 39 -20 11 10 11 12 0 12 -7 0 -9 5 -6 10 4 6 12 7 18 3 7 -4 5
2 -3 12 -14 17 -14 18 8 6 l23 -12 -33 -42 c-93 -120 -320 -331 -478 -444
-351 -250 -774 -409 -1250 -467 -521 -63 -975 8 -1445 226 -71 33 -137 66
-145 72 -8 7 -34 20 -57 29 -22 9 -72 35 -110 58 -37 23 -82 50 -99 60 -136
76 -426 338 -567 512 -196 241 -371 552 -442 787 -34 110 -34 115 -10 115 25
1 232 100 237 114 1 6 12 12 23 14 62 13 85 20 85 28 0 5 7 5 17 2 12 -5 14
-3 8 7 -6 10 -4 12 8 7 9 -3 16 -2 14 2 -1 5 2 9 7 9 5 0 12 4 15 9 11 14 51
33 114 54 155 50 260 77 274 72 11 -4 14 -2 9 5 -4 7 -4 12 1 12 4 0 40 7 78
16 39 8 79 17 90 19 11 2 20 4 20 5 0 2 11 3 25 4 14 1 31 5 37 9 7 5 30 5 50
2 28 -4 33 -3 18 4 -19 9 -19 10 3 10 12 1 22 -3 22 -7 0 -4 17 -6 38 -3 l37
5 -30 7 -30 7 33 1 c21 1 46 -9 73 -28z m1896 13 c-3 -3 -12 -4 -19 -1 -8 3
-5 6 6 6 11 1 17 -2 13 -5z m-774 -41 c-13 -2 -33 -2 -45 0 -13 2 -3 4 22 4
25 0 35 -2 23 -4z m170 0 c-13 -2 -35 -2 -50 0 -16 2 -5 4 22 4 28 0 40 -2 28
-4z m64 1 c-3 -3 -12 -4 -19 -1 -8 3 -5 6 6 6 11 1 17 -2 13 -5z m713 -14 c0
-5 -5 -10 -11 -10 -5 0 -7 5 -4 10 3 6 8 10 11 10 2 0 4 -4 4 -10z m-1763 -46
c21 3 30 3 20 0 -9 -3 -15 -9 -13 -13 6 -10 -90 -8 -100 2 -4 4 0 7 9 7 10 0
17 5 17 11 0 8 4 8 14 0 9 -7 30 -10 53 -7z m-197 -4 c0 -5 -7 -10 -16 -10 -8
0 -12 5 -9 10 3 6 10 10 16 10 5 0 9 -4 9 -10z m87 -15 c4 -4 3 -5 -4 -1 -6 3
-14 -1 -18 -11 -7 -22 -57 -60 -53 -41 2 7 12 17 22 23 27 14 31 32 9 38 -10
3 -6 4 9 3 15 -1 31 -6 35 -11z m173 5 c0 -5 -4 -10 -10 -10 -5 0 -10 5 -10
10 0 6 5 10 10 10 6 0 10 -4 10 -10z m-37 -21 c-6 -6 -19 -9 -29 -6 -16 4 -15
5 4 6 12 0 22 6 22 13 0 6 3 8 7 5 4 -4 2 -12 -4 -18z m407 4 c113 -4 298 -7
413 -7 175 2 207 0 207 -13 0 -8 5 -11 10 -8 6 4 8 10 5 15 -2 4 8 10 23 13
15 3 29 2 32 -3 3 -4 14 -10 25 -14 11 -3 3 -3 -19 -1 -45 5 -72 -14 -53 -36
7 -7 2 -5 -11 6 -20 16 -26 17 -45 7 -20 -12 -20 -11 2 8 29 25 16 26 -22 2
-15 -10 -24 -22 -20 -27 5 -4 2 -5 -5 -1 -7 5 -11 15 -7 24 4 12 -1 10 -18 -6
-24 -23 -47 -29 -47 -12 0 15 -107 13 -112 -2 -3 -7 -7 -6 -11 5 -6 15 2 17
58 17 35 0 67 -4 70 -10 3 -5 11 -10 16 -10 6 0 4 7 -5 15 -16 17 -156 22
-156 6 0 -12 -39 -21 -45 -11 -3 5 3 11 12 14 10 3 -12 4 -49 2 -38 -2 -71 1
-77 7 -8 8 -11 6 -11 -6 0 -9 5 -17 11 -17 5 0 7 -5 3 -11 -4 -6 -9 -7 -13 -2
-7 10 -30 13 -116 14 -34 0 -63 6 -67 12 -6 9 -8 9 -8 0 0 -9 -8 -9 -30 -1
-17 5 -40 8 -51 5 -16 -4 -18 -3 -8 9 9 12 6 14 -17 13 -16 0 -23 -3 -16 -6 6
-2 12 -9 12 -14 0 -13 -34 -11 -49 4 -11 10 -13 10 -7 0 4 -7 2 -13 -3 -13 -6
0 -11 3 -11 8 0 4 -16 7 -35 6 -19 -1 -35 1 -35 5 0 16 24 29 49 25 14 -2 118
-7 231 -11z m860 8 c0 -5 16 -8 35 -6 42 4 43 2 10 -19 -23 -15 -24 -15 -18 1
4 11 3 14 -6 9 -7 -4 -41 -9 -77 -11 -48 -3 -64 -1 -61 8 2 8 22 11 56 9 33
-1 50 2 46 8 -3 5 -1 10 4 10 6 0 11 -4 11 -9z m-1190 -11 c0 -5 -2 -10 -4
-10 -3 0 -8 5 -11 10 -3 6 -1 10 4 10 6 0 11 -4 11 -10z m-383 -26 c-3 -3 -12
-4 -19 -1 -8 3 -5 6 6 6 11 1 17 -2 13 -5z m278 -4 c3 -5 1 -10 -4 -10 -6 0
-11 5 -11 10 0 6 2 10 4 10 3 0 8 -4 11 -10z m1675 -10 c-6 -11 -15 -20 -20
-20 -6 0 -2 9 7 20 10 11 19 20 21 20 1 0 -2 -9 -8 -20z m-2070 5 c0 -2 -10
-9 -22 -15 -22 -11 -22 -10 -4 4 21 17 26 19 26 11z m541 -12 c13 -16 12 -17
-3 -4 -17 13 -22 21 -14 21 2 0 10 -8 17 -17z m559 7 c0 -5 -2 -10 -4 -10 -3
0 -8 5 -11 10 -3 6 -1 10 4 10 6 0 11 -4 11 -10z m1274 -5 c-4 -8 -10 -15 -15
-15 -4 0 -6 7 -3 15 4 8 10 15 15 15 4 0 6 -7 3 -15z m-1909 -13 c-3 -3 -11 0
-18 7 -9 10 -8 11 6 5 10 -3 15 -9 12 -12z m-521 0 c3 -5 -1 -9 -9 -9 -8 0
-12 4 -9 9 3 4 7 8 9 8 2 0 6 -4 9 -8z m876 -4 c0 -4 -4 -8 -9 -8 -6 0 -12 4
-15 8 -3 5 1 9 9 9 8 0 15 -4 15 -9z m40 2 c0 -5 -5 -10 -11 -10 -5 0 -7 5 -4
10 3 6 8 10 11 10 2 0 4 -4 4 -10z m989 -130 c1 -41 4 -77 7 -79 4 -5 11 -7
47 -14 9 -2 23 -9 30 -17 10 -12 9 -12 -4 -2 -9 6 -19 9 -22 5 -12 -12 -7 -23
11 -23 14 0 15 -2 2 -10 -9 -5 -17 -5 -20 1 -4 6 -20 4 -41 -5 -62 -26 -148
-39 -164 -26 -23 19 -19 26 29 54 44 26 64 60 42 74 -21 13 -56 118 -43 131
15 15 50 14 73 -4 25 -19 51 -20 35 -2 -6 8 -8 17 -4 21 12 12 20 -25 22 -104z
m498 78 c-3 -8 -6 -5 -6 6 -1 11 2 17 5 13 3 -3 4 -12 1 -19z m-1799 -13 c-3
-3 -9 2 -12 12 -6 14 -5 15 5 6 7 -7 10 -15 7 -18z m1494 0 c3 -13 1 -22 -3
-19 -9 5 -13 44 -5 44 2 0 6 -11 8 -25z m-335 -77 c1 -42 -1 -47 -7 -26 -5 16
-7 36 -5 45 2 10 4 21 4 26 1 4 2 7 4 7 1 0 3 -24 4 -52z m643 48 c0 -3 -4 -8
-10 -11 -5 -3 -10 -1 -10 4 0 6 5 11 10 11 6 0 10 -2 10 -4z m-710 -21 c0 -2
-10 -10 -22 -16 -21 -11 -22 -11 -9 4 13 16 31 23 31 12z m45 -52 c6 -41 6
-42 -35 -68 -44 -28 -73 -29 -78 -4 -4 20 88 134 98 122 4 -4 11 -27 15 -50z
m775 28 c0 -5 -12 -16 -27 -25 l-28 -17 23 20 c14 12 20 25 16 32 -4 8 -3 9 4
5 7 -4 12 -11 12 -15z m-1896 -7 c3 -8 2 -12 -4 -9 -6 3 -10 10 -10 16 0 14 7
11 14 -7z m999 1 c-3 -9 -8 -14 -10 -11 -3 3 -2 9 2 15 9 16 15 13 8 -4z m791
-27 c6 -4 2 -6 -10 -6 -16 2 -19 7 -15 27 4 22 6 23 9 6 2 -11 9 -23 16 -27z
m-1284 12 c0 -5 -2 -10 -4 -10 -3 0 -8 5 -11 10 -3 6 -1 10 4 10 6 0 11 -4 11
-10z m1143 -7 c-7 -2 -19 -2 -25 0 -7 3 -2 5 12 5 14 0 19 -2 13 -5z m-191
-45 c-7 -7 -12 -8 -12 -2 0 14 12 26 19 19 2 -3 -1 -11 -7 -17z m78 18 c0 -2
-7 -7 -16 -10 -8 -3 -12 -2 -9 4 6 10 25 14 25 6z m-2080 -31 c14 -19 14 -19
-2 -6 -10 7 -18 18 -18 24 0 6 1 8 3 6 1 -2 9 -13 17 -24z m1723 4 c-6 -6 -17
-11 -24 -12 -8 -2 -20 -6 -26 -10 -9 -6 -11 -3 -7 8 4 9 13 14 20 11 7 -3 16
-1 19 4 4 6 11 10 18 10 8 0 8 -3 0 -11z m-1139 -17 c3 -5 -1 -9 -9 -9 -8 0
-12 4 -9 9 3 4 7 8 9 8 2 0 6 -4 9 -8z m58 -36 c7 4 8 2 4 -5 -6 -8 -12 -9
-20 -2 -7 6 -16 8 -20 4 -4 -4 -4 1 0 11 6 16 8 17 16 2 5 -9 14 -13 20 -10z
m215 2 c-3 -8 -6 -5 -6 6 -1 11 2 17 5 13 3 -3 4 -12 1 -19z m788 13 c3 -5 1
-12 -5 -16 -5 -3 -10 1 -10 9 0 18 6 21 15 7z m-1110 -11 c-3 -5 -14 -10 -23
-9 -14 0 -13 2 3 9 27 11 27 11 20 0z m1225 -47 c-8 -3 -27 -12 -43 -20 -21
-11 -27 -11 -25 -1 3 12 36 25 68 26 13 0 13 0 0 -5z m-1127 -38 c-3 -9 -8
-14 -10 -11 -3 3 -2 9 2 15 9 16 15 13 8 -4z m257 -1 c0 -8 -19 -13 -24 -6 -3
5 1 9 9 9 8 0 15 -2 15 -3z m687 0 c-3 -3 -12 -4 -19 -1 -8 3 -5 6 6 6 11 1
17 -2 13 -5z m-939 -36 c-2 -6 -10 -13 -16 -14 -7 -1 -8 0 -2 3 5 2 8 9 4 14
-3 5 0 9 6 9 7 0 10 -5 8 -12z m-101 -58 c3 -10 2 -11 -4 -4 -4 7 -19 14 -33
17 -22 4 -21 5 4 4 17 -1 31 -9 33 -17z m1196 -4 c-10 -13 -20 -22 -22 -20 -4
4 29 44 36 44 2 0 -4 -11 -14 -24z m-1246 -28 c-3 -8 -6 -5 -6 6 -1 11 2 17 5
13 3 -3 4 -12 1 -19z m1128 12 c-3 -5 -12 -10 -18 -10 -7 0 -6 4 3 10 19 12
23 12 15 0z m82 -6 c-3 -3 -12 -4 -19 -1 -8 3 -5 6 6 6 11 1 17 -2 13 -5z
m-1432 -14 c3 -5 1 -10 -4 -10 -6 0 -11 5 -11 10 0 6 2 10 4 10 3 0 8 -4 11
-10z m645 -20 c0 -5 -5 -10 -11 -10 -5 0 -7 5 -4 10 3 6 8 10 11 10 2 0 4 -4
4 -10z m-790 -14 c0 -2 -8 -10 -17 -17 -16 -13 -17 -12 -4 4 13 16 21 21 21
13z m675 -6 c3 -5 1 -10 -4 -10 -6 0 -11 5 -11 10 0 6 2 10 4 10 3 0 8 -4 11
-10z m769 -26 c3 -8 2 -12 -4 -9 -6 3 -10 10 -10 16 0 14 7 11 14 -7z m-1547
-46 c-3 -7 -5 -2 -5 12 0 14 2 19 5 13 2 -7 2 -19 0 -25z m1540 -30 c-3 -8 -6
-5 -6 6 -1 11 2 17 5 13 3 -3 4 -12 1 -19z m-1579 -22 c-7 -8 -15 -12 -17 -11
-5 6 10 25 20 25 5 0 4 -6 -3 -14z m1532 -2 c0 -8 -19 -13 -24 -6 -3 5 1 9 9
9 8 0 15 -2 15 -3z m-119 -61 c13 -16 12 -17 -3 -4 -10 7 -18 15 -18 17 0 8 8
3 21 -13z m-1517 -28 c-4 -8 -8 -15 -10 -15 -2 0 -4 7 -4 15 0 8 4 15 10 15 5
0 7 -7 4 -15z m1206 -9 c0 -2 -7 -7 -16 -10 -8 -3 -12 -2 -9 4 6 10 25 14 25
6z m-1377 -50 c4 -10 1 -13 -8 -9 -8 3 -12 9 -9 14 7 12 11 11 17 -5z m544
-21 c0 -8 -4 -12 -9 -9 -5 3 -6 10 -3 15 9 13 12 11 12 -6z m1073 -15 c0 -5
-5 -10 -11 -10 -5 0 -7 5 -4 10 3 6 8 10 11 10 2 0 4 -4 4 -10z m197 -12 c-3
-8 -6 -5 -6 6 -1 11 2 17 5 13 3 -3 4 -12 1 -19z m-2102 -18 c3 -5 1 -10 -4
-10 -6 0 -11 5 -11 10 0 6 2 10 4 10 3 0 8 -4 11 -10z m436 -23 c-10 -9 -11
-8 -5 6 3 10 9 15 12 12 3 -3 0 -11 -7 -18z m1656 -14 c-3 -10 -5 -4 -5 12 0
17 2 24 5 18 2 -7 2 -21 0 -30z m-147 12 c0 -2 -6 -5 -13 -8 -8 -3 -14 1 -14
8 0 7 6 11 14 8 7 -3 13 -6 13 -8z m-1300 -30 c0 -5 -5 -3 -10 5 -5 8 -10 20
-10 25 0 6 5 3 10 -5 5 -8 10 -19 10 -25z m180 -5 c8 -5 11 -10 5 -10 -5 0
-17 5 -25 10 -8 5 -10 10 -5 10 6 0 17 -5 25 -10z m-380 -34 c14 -18 14 -18
-7 -6 -12 8 -19 18 -16 23 3 4 6 7 7 5 1 -2 8 -12 16 -22z m615 14 c3 -5 1
-10 -4 -10 -6 0 -11 5 -11 10 0 6 2 10 4 10 3 0 8 -4 11 -10z m490 -10 c-3 -5
-12 -10 -18 -10 -7 0 -6 4 3 10 19 12 23 12 15 0z m-1064 -27 c13 -16 12 -17
-3 -4 -17 13 -22 21 -14 21 2 0 10 -8 17 -17z m1539 12 c0 -2 -9 -9 -20 -15
-12 -6 -20 -7 -20 -1 0 5 8 12 18 14 9 3 18 5 20 6 1 0 2 -1 2 -4z m1725 -15
c3 -5 2 -10 -4 -10 -5 0 -13 5 -16 10 -3 6 -2 10 4 10 5 0 13 -4 16 -10z
m-3751 -15 c3 -8 1 -15 -4 -15 -6 0 -10 7 -10 15 0 8 2 15 4 15 2 0 6 -7 10
-15z m356 -19 c0 -2 -7 -7 -16 -10 -8 -3 -12 -2 -9 4 6 10 25 14 25 6z m-323
-12 c-3 -3 -12 -4 -19 -1 -8 3 -5 6 6 6 11 1 17 -2 13 -5z m71 -11 c-10 -2
-28 -2 -40 0 -13 2 -5 4 17 4 22 1 32 -1 23 -4z m933 -16 c-10 -9 -11 -8 -5 6
3 10 9 15 12 12 3 -3 0 -11 -7 -18z m-631 -17 c0 -5 -9 -6 -20 -3 -11 3 -20 9
-20 13 0 5 9 6 20 3 11 -3 20 -9 20 -13z m560 0 c0 -5 -2 -10 -4 -10 -3 0 -8
5 -11 10 -3 6 -1 10 4 10 6 0 11 -4 11 -10z m2927 4 c-3 -3 -12 -4 -19 -1 -8
3 -5 6 6 6 11 1 17 -2 13 -5z m64 -12 c-7 -2 -18 1 -23 6 -8 8 -4 9 13 5 13
-4 18 -8 10 -11z m-3490 -10 c-7 -2 -18 1 -23 6 -8 8 -4 9 13 5 13 -4 18 -8
10 -11z m1462 -2 c-3 -11 -12 -20 -19 -20 -11 0 -10 5 3 20 10 11 18 20 19 20
1 0 0 -9 -3 -20z m-1684 -23 c0 -21 -1 -21 -9 -2 -12 28 -12 37 0 30 6 -3 10
-16 9 -28z m808 8 c0 -8 -4 -15 -9 -15 -10 0 -11 14 -1 23 9 10 10 9 10 -8z
m-529 -20 c-3 -3 -9 2 -12 12 -6 14 -5 15 5 6 7 -7 10 -15 7 -18z m747 -5 c3
-5 1 -10 -4 -10 -6 0 -11 5 -11 10 0 6 2 10 4 10 3 0 8 -4 11 -10z m-640 -30
c3 -6 -1 -7 -9 -4 -18 7 -21 14 -7 14 6 0 13 -4 16 -10z m1255 -10 c-6 -11
-12 -20 -14 -20 -2 0 -2 9 1 20 3 11 9 20 15 20 5 0 4 -9 -2 -20z m-110 -10
c0 -5 -5 -10 -11 -10 -5 0 -7 5 -4 10 3 6 8 10 11 10 2 0 4 -4 4 -10z m-535
-28 c-3 -3 -11 0 -18 7 -9 10 -8 11 6 5 10 -3 15 -9 12 -12z m485 4 c0 -3 -4
-8 -10 -11 -5 -3 -10 -1 -10 4 0 6 5 11 10 11 6 0 10 -2 10 -4z m-955 -97 c11
-16 1 -19 -13 -3 -7 8 -8 14 -3 14 5 0 13 -5 16 -11z m52 -6 c-4 -3 -2 -12 4
-19 8 -9 5 -11 -10 -7 -20 5 -19 33 2 33 6 0 7 -3 4 -7z m748 -3 c-3 -5 -12
-10 -18 -10 -7 0 -6 4 3 10 19 12 23 12 15 0z m-414 -33 c-10 -9 -11 -8 -5 6
3 10 9 15 12 12 3 -3 0 -11 -7 -18z m274 13 c3 -5 1 -10 -4 -10 -6 0 -11 5
-11 10 0 6 2 10 4 10 3 0 8 -4 11 -10z m-528 -35 c0 -8 -4 -12 -9 -9 -5 3 -6
10 -3 15 9 13 12 11 12 -6z m60 -27 c-3 -8 -6 -5 -6 6 -1 11 2 17 5 13 3 -3 4
-12 1 -19z m-13 -14 c5 -14 4 -15 -9 -4 -17 14 -19 20 -6 20 5 0 12 -7 15 -16z
m236 12 c0 -2 -7 -9 -15 -16 -13 -11 -14 -10 -9 4 5 14 24 23 24 12z m-190
-50 c0 -3 -4 -8 -10 -11 -5 -3 -10 -1 -10 4 0 6 5 11 10 11 6 0 10 -2 10 -4z
m58 -21 c-3 -3 -9 2 -12 12 -6 14 -5 15 5 6 7 -7 10 -15 7 -18z m729 -27 c-3
-8 -6 -5 -6 6 -1 11 2 17 5 13 3 -3 4 -12 1 -19z m249 -95 c-7 -7 -26 7 -26
19 0 6 6 6 15 -2 9 -7 13 -15 11 -17z m399 -3 c-3 -5 -12 -10 -18 -10 -7 0 -6
4 3 10 19 12 23 12 15 0z m-75 -30 c0 -5 -7 -10 -16 -10 -8 0 -12 -4 -9 -10 4
-6 -1 -7 -11 -3 -14 5 -13 8 7 19 29 16 29 16 29 4z m37 4 c-3 -3 -12 -4 -19
-1 -8 3 -5 6 6 6 11 1 17 -2 13 -5z m-1127 -14 c0 -5 -4 -10 -10 -10 -5 0 -10
5 -10 10 0 6 5 10 10 10 6 0 10 -4 10 -10z m950 6 c0 -2 -7 -9 -15 -16 -13
-11 -14 -10 -9 4 5 14 24 23 24 12z m-914 -27 c19 -22 19 -22 -3 -8 -13 8 -23
17 -23 21 0 12 6 9 26 -13z m1204 -14 l25 -30 -27 24 c-16 14 -28 29 -28 34 0
6 1 8 3 6 1 -2 13 -17 27 -34z m-1275 15 c-3 -5 -12 -10 -18 -10 -7 0 -6 4 3
10 19 12 23 12 15 0z m-35 -4 c0 -3 -4 -8 -10 -11 -5 -3 -10 -1 -10 4 0 6 5
11 10 11 6 0 10 -2 10 -4z m1410 -16 c-20 -13 -33 -13 -25 0 3 6 14 10 23 10
15 0 15 -2 2 -10z m13 -65 c-3 -9 -8 -14 -10 -11 -3 3 -2 9 2 15 9 16 15 13 8
-4z m-413 -25 c0 -5 -5 -10 -11 -10 -5 0 -7 5 -4 10 3 6 8 10 11 10 2 0 4 -4
4 -10z m-618 -28 c-7 -5 -10 -16 -6 -25 3 -9 9 -15 13 -13 3 2 7 -8 8 -22 1
-25 -1 -24 -18 11 -20 38 -18 57 4 57 9 0 8 -3 -1 -8z m1078 -74 c0 -6 -6 -5
-15 2 -8 7 -15 14 -15 16 0 2 7 1 15 -2 8 -4 15 -11 15 -16z m-927 -23 c-3 -9
-8 -14 -10 -11 -3 3 -2 9 2 15 9 16 15 13 8 -4z m612 -5 c-3 -5 -12 -10 -18
-10 -7 0 -6 4 3 10 19 12 23 12 15 0z m314 -17 c-2 -24 -2 -25 -6 -5 -3 13 -9
19 -15 16 -7 -4 -8 -2 -4 4 13 21 26 13 25 -15z m-1049 -13 c0 -5 -5 -10 -11
-10 -5 0 -7 5 -4 10 3 6 8 10 11 10 2 0 4 -4 4 -10z m680 -4 c0 -3 -4 -8 -10
-11 -5 -3 -10 -1 -10 4 0 6 5 11 10 11 6 0 10 -2 10 -4z m370 -20 c0 -2 -9 -6
-20 -9 -11 -3 -18 -1 -14 4 5 9 34 13 34 5z m-1116 -51 c3 -8 1 -15 -4 -15 -6
0 -10 7 -10 15 0 8 2 15 4 15 2 0 6 -7 10 -15z"/>
<path d="M2905 4266 c-11 -7 -22 -14 -25 -14 -25 -2 -70 -18 -92 -33 -14 -11
-33 -19 -41 -19 -8 0 -20 -7 -27 -15 -7 -8 -15 -13 -19 -10 -4 2 -21 -4 -38
-15 -25 -15 -31 -25 -29 -49 2 -32 -8 -33 -17 -1 -3 13 -1 18 5 13 7 -3 8 -1
4 5 -9 14 -64 -11 -72 -32 -8 -21 47 -187 59 -179 6 3 7 1 3 -5 -9 -14 4 -63
14 -57 5 3 12 0 16 -6 4 -8 3 -9 -4 -5 -7 4 -12 5 -12 2 0 -12 72 -155 88
-177 11 -13 22 -34 26 -47 4 -12 12 -19 18 -16 7 4 8 2 4 -4 -7 -13 62 -140
88 -162 9 -7 16 -16 16 -21 0 -17 46 -78 56 -74 6 2 11 -2 10 -9 -1 -11 50
-79 97 -128 9 -10 14 -18 10 -18 -4 0 17 -25 47 -55 29 -30 57 -52 61 -50 4 3
6 -3 5 -13 -1 -11 6 -16 17 -15 10 0 16 -2 12 -5 -9 -9 56 -71 70 -66 7 3 16
1 20 -5 4 -7 -1 -8 -12 -4 -14 5 -13 1 6 -20 13 -15 28 -24 34 -20 6 3 7 1 3
-5 -9 -14 32 -42 53 -35 13 4 13 3 2 -5 -11 -8 0 -20 49 -55 37 -27 69 -43 79
-40 12 4 13 3 3 -5 -10 -7 -6 -14 18 -29 l32 -20 24 24 c24 24 24 25 7 54 -17
28 -17 31 1 64 18 33 18 36 2 54 -9 10 -34 21 -54 25 -37 6 -73 35 -128 104
-15 18 -57 49 -95 67 -37 19 -74 43 -81 54 -17 25 -51 38 -100 39 -20 1 -59
13 -87 27 -58 31 -77 65 -87 151 -4 33 -14 68 -24 79 -25 29 -40 81 -40 141 0
39 -4 54 -14 54 -11 0 -11 -13 0 -82 7 -45 11 -84 9 -86 -13 -13 -34 12 -40
49 -5 28 -13 43 -25 46 -12 3 -16 11 -13 20 5 12 7 12 14 1 22 -33 7 35 -17
79 -24 45 -25 54 -19 133 6 80 9 87 50 143 25 32 49 74 54 94 6 20 25 51 42
69 28 29 31 37 26 75 -7 52 -17 63 -42 45z m30 -46 c3 -5 -1 -10 -10 -10 -9 0
-13 5 -10 10 3 6 8 10 10 10 2 0 7 -4 10 -10z m-155 -34 c0 -2 -7 -7 -16 -10
-8 -3 -12 -2 -9 4 6 10 25 14 25 6z m-171 -80 c-15 -13 -49 -25 -49 -17 0 5 8
12 18 14 24 6 36 8 31 3z m253 -28 c-8 -8 -9 -4 -5 13 4 13 8 18 11 10 2 -7
-1 -18 -6 -23z m-22 -59 c-7 -11 -14 -18 -17 -15 -3 3 0 12 7 21 18 21 23 19
10 -6z m-140 -79 c0 -5 -5 -10 -11 -10 -5 0 -7 5 -4 10 3 6 8 10 11 10 2 0 4
-4 4 -10z m68 -299 c-7 -9 -13 -18 -15 -20 -1 -2 -1 5 0 16 0 11 7 20 14 20
10 0 10 -4 1 -16z m39 -63 c-3 -8 -6 -5 -6 6 -1 11 2 17 5 13 3 -3 4 -12 1
-19z m78 -88 c-3 -5 -11 -10 -16 -10 -6 0 -7 5 -4 10 3 6 11 10 16 10 6 0 7
-4 4 -10z m11 -32 c4 -7 3 -8 -4 -4 -7 4 -12 2 -12 -5 0 -7 -3 -10 -6 -6 -6 5
3 27 11 27 2 0 7 -5 11 -12z m148 -240 c-4 -6 -10 -5 -15 3 -14 22 -10 33 6
19 8 -7 12 -17 9 -22z m206 -78 c12 -7 10 -9 -8 -7 -12 0 -22 5 -22 9 0 11 12
10 30 -2z m95 -48 c-3 -3 -11 0 -18 7 -9 10 -8 11 6 5 10 -3 15 -9 12 -12z
m160 -142 c13 -6 15 -9 5 -9 -8 0 -22 4 -30 9 -18 12 -2 12 25 0z m63 -35 c-3
-3 -9 2 -12 12 -6 14 -5 15 5 6 7 -7 10 -15 7 -18z"/>
<path d="M5956 3842 c-3 -5 6 -24 19 -44 22 -33 45 -47 105 -64 22 -6 23 -5
11 10 -19 22 -5 20 21 -4 12 -11 18 -23 15 -27 -4 -3 -7 -1 -7 5 0 7 -5 12
-11 12 -6 0 -8 -9 -4 -20 5 -15 0 -22 -19 -29 -19 -8 -23 -15 -19 -33 3 -13
11 -29 17 -37 8 -11 8 -13 -1 -8 -6 4 -14 3 -18 -3 -9 -15 -48 -12 -73 6 -20
14 -22 21 -16 62 5 43 3 51 -31 95 -40 52 -45 54 -79 31 -25 -15 -139 -17
-129 -1 2 4 -9 7 -26 7 -21 0 -34 -7 -42 -22 -26 -49 -135 -159 -176 -177 -40
-18 -69 -52 -56 -65 14 -14 52 -4 133 35 61 30 99 42 135 44 28 1 66 5 86 9
35 7 38 6 70 -38 19 -28 35 -42 39 -35 5 7 9 5 13 -6 4 -9 3 -14 -2 -11 -18
12 -18 -35 0 -58 18 -23 152 -96 176 -96 7 0 19 10 27 22 18 25 21 42 6 33 -5
-3 -10 -1 -10 5 0 7 8 9 19 5 11 -3 22 -1 25 4 4 6 24 5 54 -4 26 -8 65 -15
87 -15 22 -1 51 -7 65 -15 28 -16 147 -20 170 -5 12 7 12 13 1 33 -11 21 -10
28 13 62 36 52 20 64 -38 30 -34 -20 -50 -24 -59 -16 -8 6 -29 8 -50 4 -47 -7
-50 14 -7 45 38 29 38 38 -4 52 -18 6 -42 20 -51 30 -26 28 -50 25 -76 -11
-20 -29 -25 -31 -66 -25 -60 8 -62 10 -50 55 15 56 -3 85 -72 118 -31 15 -68
35 -83 45 -15 10 -29 15 -32 10z m-236 -56 c0 -2 -12 -11 -27 -20 l-28 -17 24
20 c23 21 31 25 31 17z m170 -1 c0 -2 -10 -9 -22 -15 -22 -11 -22 -10 -4 4 21
17 26 19 26 11z m-80 -23 c37 -5 39 -13 1 -10 -18 1 -38 9 -44 17 -10 12 -9
13 3 6 8 -5 26 -11 40 -13z m254 3 c3 -8 1 -15 -4 -15 -6 0 -10 5 -10 11 0 5
-4 7 -10 4 -5 -3 -10 -1 -10 4 0 17 27 13 34 -4z m-105 -54 c0 -12 -2 -12 -8
4 -8 19 -8 19 -20 0 -11 -18 -12 -18 -7 -2 3 10 6 23 6 29 0 6 6 6 15 -2 8 -7
15 -20 14 -29z m-309 -1 c0 -5 -5 -10 -11 -10 -5 0 -7 5 -4 10 3 6 8 10 11 10
2 0 4 -4 4 -10z m304 -45 c3 -8 1 -15 -4 -15 -6 0 -10 7 -10 15 0 8 2 15 4 15
2 0 6 -7 10 -15z m140 -25 c-6 -6 -10 -3 -10 10 0 13 4 16 10 10 7 -7 7 -13 0
-20z m-340 -1 c-7 -12 -42 -17 -55 -7 -11 8 -10 9 4 4 9 -3 17 -2 17 2 0 4 9
8 19 8 11 0 18 -3 15 -7z m581 -9 c10 -11 16 -20 13 -20 -3 0 -13 9 -23 20
-10 11 -16 20 -13 20 3 0 13 -9 23 -20z m-464 -17 c13 -16 12 -17 -3 -4 -10 7
-18 15 -18 17 0 8 8 3 21 -13z m-306 -3 c-3 -5 -11 -10 -16 -10 -6 0 -7 5 -4
10 3 6 11 10 16 10 6 0 7 -4 4 -10z m62 4 c-3 -3 -12 -4 -19 -1 -8 3 -5 6 6 6
11 1 17 -2 13 -5z m277 -18 c-3 -9 -10 -16 -15 -16 -5 0 -4 9 3 20 14 22 21
20 12 -4z m266 4 c0 -5 -2 -10 -4 -10 -3 0 -8 5 -11 10 -3 6 -1 10 4 10 6 0
11 -4 11 -10z m222 3 c-6 -2 -10 -9 -7 -14 4 -5 -1 -6 -9 -3 -20 8 -11 24 12
23 11 0 12 -2 4 -6z m-879 -28 c4 -8 1 -17 -6 -21 -7 -4 -9 -4 -5 1 4 4 3 14
-3 22 -7 8 -8 13 -1 13 5 0 12 -7 15 -15z m522 -5 c3 -6 -1 -7 -9 -4 -18 7
-21 14 -7 14 6 0 13 -4 16 -10z m-550 -18 c-3 -3 -11 0 -18 7 -9 10 -8 11 6 5
10 -3 15 -9 12 -12z m590 -12 c3 -5 1 -10 -4 -10 -6 0 -11 5 -11 10 0 6 2 10
4 10 3 0 8 -4 11 -10z m275 -4 c0 -11 -19 -15 -25 -6 -3 5 1 10 9 10 9 0 16
-2 16 -4z m186 -18 c4 -7 3 -9 -1 -5 -5 4 -15 -3 -22 -15 -8 -15 -12 -18 -13
-7 0 8 5 20 12 27 15 15 15 15 24 0z m-314 -46 c-7 -2 -9 -9 -5 -15 3 -7 2 -8
-2 -4 -16 14 -14 36 3 29 10 -4 12 -7 4 -10z m-72 -2 c0 -5 -5 -10 -11 -10 -5
0 -7 5 -4 10 3 6 8 10 11 10 2 0 4 -4 4 -10z m260 -50 c8 -5 11 -10 5 -10 -5
0 -17 5 -25 10 -8 5 -10 10 -5 10 6 0 17 -5 25 -10z"/>
<path d="M6390 3805 c-23 -24 -23 -25 -6 -70 10 -24 22 -47 27 -51 5 -3 26 4
45 15 41 25 88 27 137 6 28 -11 42 -12 67 -4 38 14 37 37 -3 59 -23 12 -29 13
-36 1 -5 -8 -11 -9 -15 -3 -3 6 -1 12 6 14 9 3 8 12 -5 31 -22 34 -31 34 -79
1 -41 -29 -68 -26 -68 6 0 29 -41 26 -70 -5z m60 1 c0 -2 -11 -6 -25 -8 -13
-3 -22 -1 -19 3 5 9 44 13 44 5z m110 0 c0 -2 -8 -10 -17 -17 -16 -13 -17 -12
-4 4 13 16 21 21 21 13z m-73 -42 c-3 -3 -12 -4 -19 -1 -8 3 -5 6 6 6 11 1 17
-2 13 -5z m168 -34 c8 7 16 7 19 2 7 -12 -37 -24 -58 -16 -9 3 -16 10 -16 15
0 6 9 5 21 -1 15 -8 24 -8 34 0z m-211 -17 c-5 -5 -12 -12 -16 -18 -4 -6 -8
-2 -8 8 0 9 7 17 17 17 9 0 12 -3 7 -7z"/>
<path d="M6503 3295 c-3 -9 8 -48 25 -88 16 -40 33 -94 37 -122 4 -27 14 -62
21 -77 17 -33 65 -68 94 -68 22 0 22 2 15 68 -8 81 -23 119 -60 152 -15 14
-42 53 -62 88 -34 61 -58 77 -70 47z m67 -120 c7 -9 8 -15 2 -15 -5 0 -12 7
-16 15 -3 8 -4 15 -2 15 2 0 9 -7 16 -15z m55 -25 c10 -11 16 -20 13 -20 -3 0
-13 9 -23 20 -10 11 -16 20 -13 20 3 0 13 -9 23 -20z m-25 -81 c0 -5 -4 -9 -8
-9 -5 0 -9 7 -9 15 0 8 4 12 9 9 4 -3 8 -9 8 -15z m83 -89 c3 -11 1 -18 -4
-14 -5 3 -9 12 -9 20 0 20 7 17 13 -6z"/>
<path d="M6960 3010 c-39 -34 -145 -102 -220 -140 -15 -8 -20 -15 -12 -18 6
-2 33 8 58 22 26 14 53 26 60 26 7 0 49 34 93 75 84 78 99 103 21 35z"/>
<path d="M4676 4371 c-3 -5 1 -12 10 -15 8 -3 13 -2 9 3 -3 5 1 12 7 14 8 4 7
6 -4 6 -9 1 -19 -3 -22 -8z"/>
<path d="M2305 7613 c-70 -29 -122 -70 -144 -116 -28 -59 -28 -131 2 -187 43
-82 125 -100 257 -55 89 30 131 32 155 5 39 -43 -13 -103 -102 -116 -24 -3
-43 -9 -43 -12 0 -3 7 -32 17 -65 l16 -59 41 6 c173 28 272 181 207 321 -49
107 -136 131 -273 76 -90 -36 -123 -39 -138 -11 -17 31 8 71 59 97 24 12 46
24 48 27 3 3 -3 27 -12 55 -18 57 -26 60 -90 34z"/>
<path d="M7620 7405 c-146 -73 -272 -140 -280 -150 -12 -14 -7 -22 35 -65 27
-28 53 -50 58 -50 5 0 22 10 39 21 l30 22 71 -71 71 -72 -33 -34 c-39 -40 -36
-48 32 -114 l44 -44 70 114 c227 368 263 430 263 444 0 18 -108 134 -124 133
-6 0 -130 -60 -276 -134z m208 -67 c-8 -13 -34 -58 -58 -100 -24 -43 -46 -78
-49 -78 -4 1 -28 20 -55 44 l-50 44 110 55 c60 31 111 56 113 56 2 1 -3 -9
-11 -21z"/>
<path d="M1891 7094 c-51 -73 -81 -126 -79 -138 2 -14 41 -46 113 -95 61 -40
168 -113 238 -163 71 -49 136 -88 145 -86 17 3 202 274 202 295 0 7 -20 24
-45 39 -55 32 -55 32 -123 -80 l-52 -85 -49 36 -48 36 38 60 c22 33 39 66 39
74 0 14 -85 73 -105 73 -6 0 -28 -29 -49 -65 l-38 -65 -27 16 c-15 9 -37 24
-49 33 l-21 16 49 75 c27 41 49 82 50 91 0 16 -29 32 -81 44 -24 6 -32 -3
-108 -111z"/>
<path d="M4336 7178 c-10 -14 -16 -44 -16 -76 l0 -54 -32 6 c-18 3 -56 9 -85
13 l-53 6 0 -36 0 -35 73 -16 c106 -23 352 -66 377 -66 18 0 21 5 18 37 -3 41
2 39 -160 67 l-38 7 0 64 c0 52 -4 69 -20 85 -26 26 -45 25 -64 -2z"/>
<path d="M7970 6994 c-118 -74 -230 -143 -247 -154 l-33 -19 31 -53 c17 -29
34 -57 39 -61 9 -10 48 9 127 60 29 18 78 49 108 68 30 19 57 35 59 35 4 0
-150 -280 -179 -326 -12 -18 -10 -28 10 -73 13 -28 30 -51 37 -51 7 0 83 41
168 91 85 50 196 113 245 141 50 27 94 53 98 57 11 11 -51 121 -67 121 -7 0
-70 -34 -140 -74 -70 -41 -126 -72 -124 -68 2 4 41 81 86 170 l83 164 -29 51
c-16 29 -36 53 -43 54 -8 1 -111 -59 -229 -133z"/>
<path d="M1708 6765 c-51 -29 -57 -116 -10 -151 24 -19 91 -18 98 1 5 12 17 6
53 -27 41 -39 46 -41 49 -22 5 33 -38 134 -72 171 -36 39 -80 49 -118 28z"/>
<path d="M5070 6574 l0 -52 -37 4 c-213 25 -297 33 -304 28 -14 -8 -11 -50 4
-63 8 -6 88 -18 178 -26 90 -8 229 -26 308 -40 349 -61 386 -63 379 -12 -4 25
-28 32 -275 73 l-163 27 0 53 0 52 -45 4 -45 3 0 -51z"/>
<path d="M3832 6595 c-39 -28 -27 -50 71 -129 121 -96 203 -187 222 -246 l15
-45 -5 59 c-6 68 -34 186 -47 203 -13 16 -203 162 -220 168 -7 3 -23 -2 -36
-10z"/>
<path d="M4320 6533 c0 -62 5 -60 -120 -37 -47 9 -97 18 -111 21 -35 7 -44
-19 -16 -45 16 -15 90 -36 272 -77 138 -31 265 -63 284 -71 41 -17 51 -12 51
27 0 36 -10 41 -155 78 l-110 27 0 61 0 61 -48 4 -47 3 0 -52z"/>
<path d="M8350 6491 c-91 -38 -212 -87 -270 -111 -58 -23 -109 -46 -115 -51
-10 -10 85 -206 124 -251 44 -54 96 -73 196 -73 82 0 97 3 163 34 87 41 135
91 159 169 16 50 16 57 -1 123 -35 137 -67 229 -79 228 -7 0 -86 -31 -177 -68z
m116 -238 c-22 -47 -85 -88 -157 -103 -55 -12 -65 -11 -95 5 -30 16 -91 91
-82 101 3 2 51 21 109 43 57 21 129 50 159 63 l55 25 13 -51 c12 -44 11 -55
-2 -83z"/>
<path d="M1562 6431 c-7 -21 -12 -54 -12 -74 l0 -35 83 -28 c90 -29 326 -120
397 -152 34 -16 48 -18 58 -9 20 16 144 266 137 277 -8 14 -95 61 -103 56 -4
-2 -25 -40 -46 -84 l-39 -80 -51 20 c-44 17 -407 148 -411 148 -1 0 -7 -17
-13 -39z"/>
<path d="M3882 6365 c-4 -161 -47 -337 -123 -502 -44 -97 -43 -111 1 -22 80
157 133 379 127 530 l-3 94 -2 -100z"/>
<path d="M4131 6124 c0 -11 3 -14 6 -6 3 7 2 16 -1 19 -3 4 -6 -2 -5 -13z"/>
<path d="M4121 6054 c0 -11 3 -14 6 -6 3 7 2 16 -1 19 -3 4 -6 -2 -5 -13z"/>
<path d="M4106 5994 c-4 -14 -5 -28 -3 -31 3 -2 8 8 11 23 4 14 5 28 3 31 -3
2 -8 -8 -11 -23z"/>
<path d="M8500 5944 c-107 -25 -226 -51 -265 -59 -104 -22 -103 -20 -76 -176
13 -73 28 -148 33 -166 10 -37 2 -36 98 -17 35 7 34 1 11 122 l-18 92 50 15
c28 8 51 14 52 12 2 -1 7 -31 13 -66 7 -35 14 -66 17 -69 6 -6 117 16 126 26
3 4 1 37 -5 75 l-12 67 35 10 c20 5 41 10 48 10 6 0 18 -40 28 -96 l18 -96 40
6 c58 10 77 23 77 54 -1 49 -49 276 -62 288 -10 10 -55 3 -208 -32z"/>
<path d="M3699 5749 c-7 -13 -35 -47 -62 -77 -28 -29 -44 -50 -35 -47 20 8
123 134 115 141 -3 3 -11 -5 -18 -17z"/>
<path d="M5842 5635 c0 -16 2 -22 5 -12 2 9 2 23 0 30 -3 6 -5 -1 -5 -18z"/>
<path d="M3511 5607 c-21 -21 -12 -57 17 -68 54 -21 454 -110 505 -112 52 -2
52 -2 55 30 3 31 2 32 -55 43 -32 6 -141 32 -243 56 -243 59 -266 64 -279 51z"/>
<path d="M1761 5484 c0 -11 3 -14 6 -6 3 7 2 16 -1 19 -3 4 -6 -2 -5 -13z"/>
<path d="M1721 5474 c0 -11 3 -14 6 -6 3 7 2 16 -1 19 -3 4 -6 -2 -5 -13z"/>
<path d="M1711 5424 c0 -11 3 -14 6 -6 3 7 2 16 -1 19 -3 4 -6 -2 -5 -13z"/>
<path d="M1701 5384 c0 -11 3 -14 6 -6 3 7 2 16 -1 19 -3 4 -6 -2 -5 -13z"/>
<path d="M1835 5260 c10 -11 20 -20 23 -20 3 0 -3 9 -13 20 -10 11 -20 20 -23
20 -3 0 3 -9 13 -20z"/>
<path d="M1610 5240 c-9 -6 -10 -10 -3 -10 6 0 15 5 18 10 8 12 4 12 -15 0z"/>
<path d="M1478 5173 c7 -3 16 -2 19 1 4 3 -2 6 -13 5 -11 0 -14 -3 -6 -6z"/>
<path d="M1651 5105 c9 -11 21 -29 27 -40 6 -11 12 -14 12 -8 0 7 -12 25 -27
41 -16 15 -21 19 -12 7z"/>
<path d="M8491 4834 c0 -11 3 -14 6 -6 3 7 2 16 -1 19 -3 4 -6 -2 -5 -13z"/>
<path d="M8501 4784 c0 -11 3 -14 6 -6 3 7 2 16 -1 19 -3 4 -6 -2 -5 -13z"/>
<path d="M8375 4640 c-3 -5 -1 -10 4 -10 6 0 11 5 11 10 0 6 -2 10 -4 10 -3 0
-8 -4 -11 -10z"/>
<path d="M8550 4646 c0 -2 8 -10 18 -17 15 -13 16 -12 3 4 -13 16 -21 21 -21
13z"/>
<path d="M8375 4500 c10 -11 20 -20 23 -20 3 0 -3 9 -13 20 -10 11 -20 20 -23
20 -3 0 3 -9 13 -20z"/>
<path d="M8501 4364 c0 -11 3 -14 6 -6 3 7 2 16 -1 19 -3 4 -6 -2 -5 -13z"/>
<path d="M8441 4344 c0 -11 3 -14 6 -6 3 7 2 16 -1 19 -3 4 -6 -2 -5 -13z"/>
<path d="M8451 4294 c0 -11 3 -14 6 -6 3 7 2 16 -1 19 -3 4 -6 -2 -5 -13z"/>
<path d="M1785 4190 c-90 -14 -141 -68 -152 -158 -6 -56 21 -133 55 -151 11
-6 23 -24 27 -40 l6 -29 72 25 c40 13 82 31 94 39 l22 14 -26 57 c-34 76 -36
78 -72 63 -36 -15 -35 -12 -15 -51 18 -36 18 -35 -21 -43 -26 -5 -33 -2 -52
27 -31 44 -29 80 5 117 39 42 110 60 155 38 46 -22 73 -78 58 -120 -9 -25 -8
-36 4 -55 19 -28 27 -29 50 -3 37 41 29 147 -16 211 -33 47 -114 72 -194 59z
m94 -14 c-2 -2 -35 -6 -74 -9 -41 -3 -60 -2 -45 3 25 8 127 13 119 6z m-154
-26 c-3 -5 -12 -10 -18 -10 -7 0 -6 4 3 10 19 12 23 12 15 0z m236 -17 c13
-16 12 -17 -3 -4 -10 7 -18 15 -18 17 0 8 8 3 21 -13z m-77 -11 c2 -4 -12 -6
-32 -4 -56 5 -62 10 -15 11 23 1 44 -3 47 -7z m-120 -16 c-17 -8 -40 -26 -52
-41 -12 -15 -22 -23 -22 -17 0 16 69 72 88 72 10 -1 4 -6 -14 -14z m224 -21
c-3 -3 -9 2 -12 12 -6 14 -5 15 5 6 7 -7 10 -15 7 -18z m-33 -15 c3 -5 1 -10
-4 -10 -6 0 -11 5 -11 10 0 6 2 10 4 10 3 0 8 -4 11 -10z m-298 -32 c-3 -7 -5
-2 -5 12 0 14 2 19 5 13 2 -7 2 -19 0 -25z m351 -38 c0 -18 -3 -14 -12 15 -7
22 -10 44 -7 50 6 12 19 -30 19 -65z m-41 8 c-3 -7 -5 -2 -5 12 0 14 2 19 5
13 2 -7 2 -19 0 -25z m-280 -30 c-3 -8 -6 -5 -6 6 -1 11 2 17 5 13 3 -3 4 -12
1 -19z m173 -13 c0 -5 -5 -3 -10 5 -5 8 -10 20 -10 25 0 6 5 3 10 -5 5 -8 10
-19 10 -25z m-191 -20 c0 -5 -4 -3 -9 5 -5 8 -9 22 -9 30 0 16 17 -16 18 -35z
m154 15 c3 -11 2 -18 -3 -15 -4 3 -10 14 -13 25 -3 11 -2 18 3 15 4 -3 10 -14
13 -25z m-108 -30 c10 -11 16 -20 13 -20 -3 0 -13 9 -23 20 -10 11 -16 20 -13
20 3 0 13 -9 23 -20z m159 4 c3 -8 2 -12 -4 -9 -6 3 -10 10 -10 16 0 14 7 11
14 -7z m97 -4 c6 0 8 4 5 8 -3 5 1 9 8 9 11 0 12 -4 3 -18 -8 -13 -15 -15 -24
-7 -7 6 -13 16 -12 22 0 7 2 6 6 -1 2 -7 9 -13 14 -13z m-281 -25 c14 -19 14
-19 -2 -6 -10 7 -18 18 -18 24 0 6 1 8 3 6 1 -2 9 -13 17 -24z m192 -17 c-7
-7 -12 -8 -12 -2 0 14 12 26 19 19 2 -3 -1 -11 -7 -17z m-37 -18 c-27 -12 -43
-12 -25 0 8 5 22 9 30 9 10 0 8 -3 -5 -9z"/>
<path d="M1862 3793 c-13 -2 -39 -21 -58 -40 -35 -35 -36 -37 -32 -105 3 -63
6 -71 41 -106 35 -34 42 -37 95 -37 49 0 65 5 95 28 71 54 72 149 3 224 -26
28 -40 36 -76 38 -25 2 -55 1 -68 -2z m65 -9 c-3 -3 -12 -4 -19 -1 -8 3 -5 6
6 6 11 1 17 -2 13 -5z m-77 -18 c0 -2 -12 -12 -27 -21 l-28 -18 19 21 c17 20
36 29 36 18z m180 -70 c0 -12 -5 -7 -19 24 -11 24 -11 24 3 6 9 -11 16 -24 16
-30z m-236 -22 c-4 -57 -14 -71 -14 -21 0 31 8 67 15 67 1 0 1 -21 -1 -46z
m171 21 c14 -13 25 -33 25 -45 0 -11 5 -20 12 -20 6 0 -1 -13 -17 -30 -16 -16
-33 -30 -38 -30 -5 0 2 9 17 21 14 11 26 25 26 31 0 7 -10 2 -23 -10 -13 -12
-37 -25 -54 -28 -26 -5 -37 -1 -57 19 -39 39 -35 67 14 100 34 24 67 21 95 -8z
m-142 -20 c-3 -9 -8 -14 -10 -11 -3 3 -2 9 2 15 9 16 15 13 8 -4z m217 -20 c0
-14 -2 -25 -4 -25 -2 0 -6 11 -8 25 -3 14 -1 25 3 25 5 0 9 -11 9 -25z m-12
-71 c-7 -15 -24 -34 -38 -42 -24 -15 -24 -14 2 9 14 13 29 34 33 47 4 13 9 21
12 19 3 -3 -1 -18 -9 -33z m-177 -1 c13 -16 12 -17 -3 -4 -17 13 -22 21 -14
21 2 0 10 -8 17 -17z m-33 -28 c-3 -3 -9 2 -12 12 -6 14 -5 15 5 6 7 -7 10
-15 7 -18z m100 8 c-10 -2 -26 -2 -35 0 -10 3 -2 5 17 5 19 0 27 -2 18 -5z
m-38 -36 c13 -5 13 -6 -1 -6 -8 -1 -24 6 -35 15 -19 15 -19 15 1 6 11 -5 27
-12 35 -15z m80 -1 c0 -2 -9 -6 -20 -9 -11 -3 -18 -1 -14 4 5 9 34 13 34 5z"/>
<path d="M8142 3604 c-57 -40 -72 -133 -27 -171 44 -38 86 -28 141 35 54 62
88 18 43 -55 -18 -29 -19 -37 -8 -44 27 -17 48 -9 71 29 46 75 24 153 -49 168
-28 5 -37 1 -82 -41 -52 -48 -81 -54 -81 -16 0 11 12 33 26 50 21 26 24 34 14
46 -16 19 -20 19 -48 -1z m28 3 c0 -2 -12 -14 -27 -28 l-28 -24 24 28 c23 25
31 32 31 24z m10 -21 c0 -2 -8 -10 -17 -17 -16 -13 -17 -12 -4 4 13 16 21 21
21 13z m110 -43 c-8 -3 -28 -17 -45 -32 l-30 -26 29 33 c17 17 37 32 45 31 14
0 14 -1 1 -6z m64 -12 c10 -11 16 -26 13 -33 -4 -9 -6 -7 -6 4 -1 9 -11 24
-23 32 -12 9 -18 16 -12 16 6 0 19 -9 28 -19z m-247 -33 c-3 -8 -6 -5 -6 6 -1
11 2 17 5 13 3 -3 4 -12 1 -19z m200 16 c-3 -3 -12 -4 -19 -1 -8 3 -5 6 6 6
11 1 17 -2 13 -5z m-193 -50 c3 -8 2 -12 -4 -9 -6 3 -10 10 -10 16 0 14 7 11
14 -7z m79 -1 c-7 -2 -19 -2 -25 0 -7 3 -2 5 12 5 14 0 19 -2 13 -5z m174 -15
c-3 -8 -6 -5 -6 6 -1 11 2 17 5 13 3 -3 4 -12 1 -19z m-151 -3 c-11 -8 -25
-15 -30 -15 -6 1 0 7 14 15 32 19 40 18 16 0z m-59 -11 c-3 -3 -12 -4 -19 -1
-8 3 -5 6 6 6 11 1 17 -2 13 -5z m194 -27 c-10 -9 -11 -8 -5 6 3 10 9 15 12
12 3 -3 0 -11 -7 -18z m-31 -2 c-10 -12 -9 -15 6 -15 16 0 17 -2 4 -10 -21
-13 -36 5 -20 25 7 8 15 15 17 15 3 0 0 -7 -7 -15z"/>
<path d="M2012 3468 c-103 -56 -127 -82 -117 -126 8 -39 48 -77 72 -68 17 7
17 6 1 -10 -15 -15 -15 -20 -2 -46 8 -15 19 -28 25 -28 12 0 196 93 222 112
15 12 15 15 -3 38 l-19 25 -76 -38 c-41 -20 -82 -37 -90 -37 -19 0 -49 46 -42
64 3 8 44 35 91 61 47 26 86 49 86 51 0 13 -34 54 -44 54 -6 -1 -53 -24 -104
-52z m128 1 c0 -3 -12 -11 -27 -18 l-28 -12 25 20 c22 18 23 21 7 26 -9 4 -14
11 -11 17 5 8 33 -18 34 -33z m-50 17 c0 -2 -7 -7 -16 -10 -8 -3 -12 -2 -9 4
6 10 25 14 25 6z m-91 -50 c-2 -2 -15 -9 -29 -15 -24 -11 -24 -11 -6 3 16 13
49 24 35 12z m-59 -30 c0 -2 -8 -10 -17 -17 -16 -13 -17 -12 -4 4 13 16 21 21
21 13z m45 -26 c-13 -14 -16 -28 -11 -52 4 -23 3 -29 -4 -18 -15 22 -12 51 7
72 9 10 18 18 21 18 3 0 -3 -9 -13 -20z m-40 -76 c8 -4 15 -11 15 -17 0 -6
-11 0 -25 13 -14 13 -25 31 -24 39 0 10 4 8 9 -7 5 -12 16 -25 25 -28z m185 6
c-8 -5 -19 -10 -25 -10 -5 0 -3 5 5 10 8 5 20 10 25 10 6 0 3 -5 -5 -10z m79
6 c-2 -2 -15 -9 -29 -15 -24 -11 -24 -11 -6 3 16 13 49 24 35 12z m-172 -42
c-3 -3 -12 -4 -19 -1 -8 3 -5 6 6 6 11 1 17 -2 13 -5z m63 -18 c0 -2 -13 -9
-30 -15 -35 -12 -41 -5 -7 9 25 10 37 12 37 6z m-111 -36 c11 -24 11 -24 -3
-6 -9 11 -16 24 -16 30 0 12 5 7 19 -24z"/>
<path d="M2246 3479 l-27 -22 41 -23 c50 -28 57 -30 39 -7 -12 14 -12 16 0 8
11 -6 13 -4 8 8 -4 10 -2 17 5 17 7 0 9 -13 5 -35 -3 -19 -1 -37 4 -40 16 -11
10 82 -7 99 -21 21 -36 20 -68 -5z m64 -4 c0 -2 -8 -3 -17 -3 -10 0 -27 -2
-38 -6 -13 -5 -12 -2 4 7 21 12 51 13 51 2z"/>
<path d="M8060 3347 c-81 -28 -108 -148 -49 -219 33 -41 91 -65 133 -54 68 17
138 121 121 177 -10 31 -46 20 -58 -16 -12 -38 -55 -85 -79 -85 -26 0 -23 14
15 73 60 93 60 94 35 111 -35 21 -79 26 -118 13z m73 -14 c-13 -2 -33 -2 -45
0 -13 2 -3 4 22 4 25 0 35 -2 23 -4z m-96 -26 c-12 -13 -24 -22 -26 -20 -6 4
30 43 40 43 5 0 -2 -10 -14 -23z m135 -13 c-9 -16 -10 -14 -9 8 1 15 6 23 11
18 4 -4 4 -16 -2 -26z m-65 20 c-3 -3 -12 -4 -19 -1 -8 3 -5 6 6 6 11 1 17 -2
13 -5z m-38 -7 c-2 -1 -13 -9 -24 -17 -19 -14 -19 -14 -6 3 7 9 18 17 24 17 6
0 8 -1 6 -3z m45 -15 c3 -4 -9 -30 -26 -56 -29 -44 -33 -47 -45 -30 -7 10 -10
27 -7 38 11 38 64 71 78 48z m29 -26 c4 -10 1 -13 -8 -9 -8 3 -12 9 -9 14 7
12 11 11 17 -5z m-146 -68 c-2 -13 -4 -3 -4 22 0 25 2 35 4 23 2 -13 2 -33 0
-45z m113 -1 c-8 -9 -9 -7 -4 8 7 18 6 19 -11 5 -17 -14 -17 -14 -4 7 12 19
15 20 22 7 6 -10 5 -20 -3 -27z m130 -14 c-11 -17 -11 -17 -6 0 3 10 7 26 7
35 1 15 2 15 6 0 2 -10 -1 -25 -7 -35z m-30 4 c0 -2 -12 -14 -27 -28 l-28 -24
24 28 c23 25 31 32 31 24z m20 -31 c0 -2 -8 -10 -17 -17 -16 -13 -17 -12 -4 4
13 16 21 21 21 13z m-120 -64 c3 -3 -8 -2 -25 2 -16 4 -34 12 -40 17 -5 5 6 4
25 -2 19 -7 37 -14 40 -17z"/>
<path d="M2340 3275 c-7 -8 -28 -24 -47 -36 -27 -17 -37 -19 -43 -9 -4 7 -13
9 -19 6 -6 -4 -8 -12 -5 -18 4 -7 2 -8 -4 -4 -7 4 -12 11 -12 16 0 14 32 21
46 9 17 -14 19 2 3 18 -9 9 -19 8 -41 -3 -27 -14 -28 -17 -15 -37 13 -20 10
-23 -62 -66 -92 -56 -99 -76 -49 -142 36 -47 67 -59 88 -34 11 13 10 19 -7 38
-11 12 -25 32 -32 43 -9 19 -7 24 12 36 40 26 52 30 27 9 -14 -11 -29 -21 -34
-21 -5 0 -7 -3 -3 -6 3 -3 32 9 65 28 l61 33 24 -23 24 -22 18 20 c16 17 17
25 7 40 -16 26 -17 25 23 50 41 25 43 39 12 69 -21 19 -25 20 -37 6z m29 -8
c-2 -1 -13 -9 -24 -17 -19 -14 -19 -14 -6 3 7 9 18 17 24 17 6 0 8 -1 6 -3z
m16 -26 c3 -5 2 -12 -3 -15 -5 -3 -9 1 -9 9 0 17 3 19 12 6z m-170 -69 c-22
-19 -88 -55 -81 -44 4 7 24 21 44 32 41 21 51 24 37 12z m64 -16 c-10 -9 -69
-36 -69 -32 0 7 52 35 64 36 5 0 7 -2 5 -4z m49 -25 c14 10 13 9 -1 -7 -15
-16 -19 -17 -27 -4 -5 8 -10 20 -10 25 1 6 5 2 11 -8 9 -15 13 -16 27 -6z
m-198 -81 c6 -11 8 -20 6 -20 -3 0 -10 9 -16 20 -6 11 -8 20 -6 20 3 0 10 -9
16 -20z m32 -65 c10 7 11 5 0 -6 -10 -11 -17 -8 -40 16 l-27 29 27 -23 c16
-14 32 -20 40 -16z"/>
<path d="M7728 3158 c-31 -11 -32 -16 -17 -72 l11 -38 33 32 c30 29 32 34 22
61 -6 16 -14 29 -17 28 -3 0 -17 -5 -32 -11z m17 -18 c-27 -12 -43 -12 -25 0
8 5 22 9 30 9 10 0 8 -3 -5 -9z m13 -32 c-18 -27 -32 -27 -35 -1 -2 15 -1 15
6 -2 8 -19 8 -19 20 3 6 12 14 22 18 22 3 0 -1 -10 -9 -22z"/>
<path d="M7855 3080 c-46 -29 -79 -93 -72 -141 12 -88 103 -152 185 -130 47
13 94 62 112 116 15 45 8 65 -24 65 -18 0 -26 -7 -31 -27 -10 -42 -54 -83 -87
-83 l-28 0 55 82 c30 46 55 89 55 96 0 17 -61 42 -102 42 -18 0 -47 -9 -63
-20z m9 -19 c-17 -10 -36 -33 -44 -50 -7 -17 -15 -30 -17 -27 -15 15 54 96 82
96 5 0 -4 -9 -21 -19z m103 13 c-3 -3 -12 -4 -19 -1 -8 3 -5 6 6 6 11 1 17 -2
13 -5z m38 -22 c-3 -3 -11 0 -18 7 -9 10 -8 11 6 5 10 -3 15 -9 12 -12z m-70
-24 c8 -8 -66 -108 -75 -103 -15 9 -12 58 5 81 8 12 12 23 10 26 -2 2 9 3 26
2 17 -1 32 -4 34 -6z m-9 -63 c-18 -28 -21 -39 -6 -30 6 4 2 -9 -7 -28 -10
-19 -20 -31 -22 -25 -2 5 2 15 8 21 14 14 14 30 0 21 -11 -7 5 30 24 54 17 22
20 13 3 -13z m139 5 c-3 -5 -10 -10 -16 -10 -5 0 -9 5 -9 10 0 6 7 10 16 10 8
0 12 -4 9 -10z m-253 -44 c2 -19 1 -33 -3 -30 -4 2 -9 19 -11 38 -2 19 -1 33
3 30 4 -2 9 -19 11 -38z m218 -9 c0 -2 -10 -12 -22 -23 l-23 -19 19 23 c18 21
26 27 26 19z m30 -12 c0 -8 -62 -75 -69 -75 -4 0 8 18 28 39 37 41 41 44 41
36z m-219 -42 c13 -16 12 -17 -3 -4 -10 7 -18 15 -18 17 0 8 8 3 21 -13z m134
-3 c-3 -5 -11 -10 -16 -10 -6 0 -7 5 -4 10 3 6 11 10 16 10 6 0 7 -4 4 -10z
m-22 -37 c-13 -2 -33 -2 -45 0 -13 2 -3 4 22 4 25 0 35 -2 23 -4z"/>
<path d="M2309 3030 c-53 -28 -89 -86 -89 -143 0 -43 5 -53 45 -96 63 -67 89
-72 108 -19 4 12 -4 23 -29 37 -40 24 -59 59 -50 96 7 26 7 25 58 -30 71 -78
83 -83 119 -49 16 16 34 45 41 65 9 32 8 43 -9 76 -40 77 -119 103 -194 63z
m48 -6 c-3 -3 -12 -4 -19 -1 -8 3 -5 6 6 6 11 1 17 -2 13 -5z m78 -4 c3 -6 -1
-7 -9 -4 -18 7 -21 14 -7 14 6 0 13 -4 16 -10z m-115 -5 c0 -2 -10 -9 -22 -15
-22 -11 -22 -10 -4 4 21 17 26 19 26 11z m159 -39 c-3 -3 -11 5 -18 17 -13 21
-12 21 5 5 10 -10 16 -20 13 -22z m-49 11 c8 -7 22 -21 30 -32 8 -11 -1 -6
-20 10 -19 17 -37 31 -39 33 -2 1 0 2 5 2 5 0 16 -6 24 -13z m-162 -27 c-7
-10 -14 -18 -15 -16 -6 6 9 36 18 36 5 0 4 -9 -3 -20z m159 -2 c23 -21 33 -78
13 -78 -5 0 -27 19 -49 43 -34 35 -37 43 -23 49 27 11 34 9 59 -14z m71 -49
c-3 -20 -5 -19 -9 9 -3 20 -2 29 4 23 5 -5 7 -19 5 -32z m-143 -8 c-6 -5 -25
10 -25 20 0 5 6 4 14 -3 8 -7 12 -15 11 -17z m31 7 l19 -23 -25 20 c-14 11
-27 21 -29 22 -2 2 0 3 6 3 5 0 18 -10 29 -22z m-149 -35 c-3 -10 -5 -2 -5 17
0 19 2 27 5 18 2 -10 2 -26 0 -35z m43 21 c0 -8 -5 -12 -10 -9 -6 4 -8 11 -5
16 9 14 15 11 15 -7z m116 -36 l29 -33 -32 29 c-31 28 -38 36 -30 36 2 0 16
-15 33 -32z m69 -28 c-3 -5 -12 -10 -18 -10 -7 0 -6 4 3 10 19 12 23 12 15 0z
m-144 -27 c13 -16 12 -17 -3 -4 -10 7 -18 15 -18 17 0 8 8 3 21 -13z m32 -38
c-3 -8 -10 -15 -15 -15 -7 0 -6 5 1 13 6 8 7 18 3 22 -4 5 -2 5 5 1 7 -4 10
-13 6 -21z"/>
<path d="M2542 2830 c-11 -18 -7 -25 35 -64 l47 -44 -113 -7 c-112 -8 -141
-18 -141 -50 0 -13 154 -155 169 -155 4 0 16 10 27 21 19 21 19 22 -34 69
l-53 47 113 5 c102 5 114 8 131 29 l19 24 -78 72 c-44 40 -86 73 -94 73 -8 0
-21 -9 -28 -20z m108 -60 c62 -57 73 -71 62 -82 -11 -11 -12 -10 -7 3 5 13
-59 78 -134 136 -9 7 -11 12 -6 12 6 0 44 -31 85 -69z m-86 34 c3 -8 2 -12 -4
-9 -6 3 -10 10 -10 16 0 14 7 11 14 -7z m-51 -111 c-7 -2 -21 -2 -30 0 -10 3
-4 5 12 5 17 0 24 -2 18 -5z m-90 -10 c-7 -2 -19 -2 -25 0 -7 3 -2 5 12 5 14
0 19 -2 13 -5z m245 -10 c-10 -2 -28 -2 -40 0 -13 2 -5 4 17 4 22 1 32 -1 23
-4z m-105 -10 c-13 -2 -35 -2 -50 0 -16 2 -5 4 22 4 28 0 40 -2 28 -4z m-128
-43 c10 -11 16 -20 13 -20 -3 0 -13 9 -23 20 -10 11 -16 20 -13 20 3 0 13 -9
23 -20z m104 -44 c39 -41 20 -35 -24 8 -22 22 -31 34 -20 29 11 -6 31 -23 44
-37z"/>
<path d="M7635 2828 c-15 -12 -34 -37 -42 -56 l-14 -35 -48 47 c-25 25 -51 46
-57 46 -6 0 -19 -9 -29 -20 -19 -20 -18 -22 65 -105 81 -82 135 -120 74 -52
l-29 32 32 -29 c18 -16 30 -32 28 -35 -7 -7 97 -111 111 -111 6 0 19 9 29 20
18 20 18 22 -49 89 -58 59 -68 73 -62 94 7 30 32 57 52 57 8 0 46 -30 86 -66
l71 -65 26 25 25 26 -64 66 c-97 98 -149 117 -205 72z m138 -30 c18 -18 21
-23 7 -12 -14 12 -34 26 -45 32 -11 6 -14 12 -7 12 7 0 27 -15 45 -32z m-258
-20 l40 -43 -37 34 c-25 23 -42 31 -54 27 -14 -5 -15 -4 -4 9 7 8 13 15 14 15
1 0 20 -19 41 -42z m121 23 c-15 -17 -22 -35 -25 -63 -1 -5 -5 -8 -11 -8 -6 0
-6 10 1 27 10 27 37 63 47 63 3 0 -3 -9 -12 -19z m54 -15 c0 -2 -7 -7 -16 -10
-8 -3 -12 -2 -9 4 6 10 25 14 25 6z m101 -61 c47 -50 81 -73 63 -43 -5 7 -3 8
5 3 9 -5 10 -10 2 -18 -7 -7 -29 7 -75 51 -35 34 -61 62 -56 62 5 0 32 -25 61
-55z m-250 -10 c3 3 6 -2 6 -10 0 -8 -1 -15 -2 -15 0 0 -19 19 -40 42 -37 40
-37 41 -4 10 19 -18 38 -30 40 -27z m101 33 c-5 -7 -12 -22 -15 -33 -5 -20 -5
-20 -6 1 0 11 4 25 11 32 16 16 23 15 10 0z m-2 -83 c14 -19 14 -19 -2 -6 -10
7 -18 18 -18 24 0 6 1 8 3 6 1 -2 9 -13 17 -24z m98 -131 c-10 -11 -18 -12
-22 -5 -4 6 0 11 8 11 21 0 20 16 -1 32 -10 7 -27 24 -38 38 -10 14 1 6 25
-17 41 -39 43 -44 28 -59z m-78 61 c13 -14 21 -25 18 -25 -2 0 -15 11 -28 25
-13 14 -21 25 -18 25 2 0 15 -11 28 -25z"/>
<path d="M2871 2591 c-81 -100 -100 -130 -58 -95 l22 19 -19 -22 c-10 -13 -22
-20 -26 -18 -4 3 -31 -23 -59 -57 l-51 -63 24 -24 c13 -13 30 -21 38 -19 7 3
70 78 140 166 l126 160 -27 26 -28 27 -82 -100z m108 32 c-13 -15 -23 -18 -15
-4 4 5 3 17 -1 26 -5 16 -8 15 -25 -6 -19 -24 -14 -6 5 19 8 10 14 9 28 -4 14
-13 16 -20 8 -31z m-85 -38 c-9 -14 -18 -25 -21 -25 -5 0 5 18 20 38 17 22 18
13 1 -13z m-6 -75 c-22 -30 -35 -41 -22 -17 9 16 36 47 41 47 2 0 -6 -13 -19
-30z m-98 -54 c0 -2 -8 -10 -17 -17 -16 -13 -17 -12 -4 4 13 16 21 21 21 13z
m60 1 c0 -2 -9 -12 -19 -21 -14 -13 -21 -14 -27 -5 -4 8 -3 10 5 5 6 -4 14 0
17 8 5 14 24 23 24 13z m-115 -67 c-23 -24 -26 -32 -16 -44 10 -12 18 -8 52
27 l41 42 -38 -48 c-38 -47 -38 -47 -58 -27 -20 20 -20 20 9 50 16 16 31 30
34 30 2 0 -8 -13 -24 -30z"/>
<path d="M7423 2620 c-107 -48 -122 -173 -31 -255 32 -30 45 -35 86 -35 64 0
108 28 133 86 28 61 23 89 -15 89 -25 0 -31 -5 -38 -32 -11 -44 -48 -67 -93
-60 -26 4 -34 3 -29 -6 4 -7 3 -8 -2 -4 -5 5 -8 11 -6 13 1 2 -5 18 -13 34 -9
18 -13 40 -9 55 7 30 49 65 75 65 14 0 19 7 19 29 0 37 -26 44 -77 21z m23
-16 c-21 -8 -45 -19 -52 -25 -8 -6 -14 -9 -14 -5 0 11 65 46 85 45 12 0 5 -6
-19 -15z m34 -13 c0 -5 -10 -11 -22 -14 -22 -6 -22 -6 -4 8 23 17 26 18 26 6z
m-72 -51 c-7 -10 -14 -17 -17 -15 -4 4 18 35 25 35 2 0 -1 -9 -8 -20z m-51
-32 c-3 -7 -5 -2 -5 12 0 14 2 19 5 13 2 -7 2 -19 0 -25z m30 -20 c-3 -8 -6
-5 -6 6 -1 11 2 17 5 13 3 -3 4 -12 1 -19z m194 -15 c-12 -20 -14 -14 -5 12 4
9 9 14 11 11 3 -2 0 -13 -6 -23z m34 18 c3 -5 1 -12 -5 -16 -5 -3 -10 1 -10 9
0 18 6 21 15 7z m-251 -44 c3 -16 1 -25 -5 -22 -5 4 -9 18 -9 32 0 32 7 27 14
-10z m27 -54 c13 -16 12 -17 -3 -4 -10 7 -18 15 -18 17 0 8 8 3 21 -13z m183
-2 c3 -5 -2 -15 -12 -22 -15 -12 -16 -12 -5 2 7 9 10 19 6 22 -3 4 -4 7 0 7 3
0 8 -4 11 -9z m-139 -31 c3 -5 2 -10 -4 -10 -5 0 -13 5 -16 10 -3 6 -2 10 4
10 5 0 13 -4 16 -10z m95 -10 c-8 -5 -31 -9 -50 -8 l-35 1 40 7 c59 11 61 11
45 0z"/>
<path d="M2934 2436 c-17 -8 -44 -31 -60 -52 -24 -31 -29 -47 -29 -96 0 -58 1
-61 46 -103 52 -49 96 -66 110 -44 17 27 9 44 -32 67 -40 23 -63 60 -53 86 3
9 12 12 21 9 12 -5 14 -3 8 6 -6 10 -3 11 14 2 24 -13 28 -23 6 -15 -29 12
-14 -5 47 -50 l62 -46 26 25 c21 22 25 35 25 84 0 49 -4 64 -25 86 -47 51
-108 66 -166 41z m79 -13 c-13 -2 -33 -2 -45 0 -13 2 -3 4 22 4 25 0 35 -2 23
-4z m-67 -15 c4 -6 3 -8 -3 -5 -6 4 -24 -3 -39 -15 l-29 -22 24 27 c27 30 36
33 47 15z m43 -11 c-2 -1 -15 -11 -28 -22 l-24 -20 14 23 c8 12 20 22 28 22 8
0 12 -1 10 -3z m54 -34 c16 -18 20 -35 18 -65 -1 -14 -11 -10 -50 20 -38 27
-47 39 -39 49 15 18 52 16 71 -4z m77 -57 c0 -39 -6 -30 -13 19 -4 27 -3 35 3
25 5 -8 10 -28 10 -44z m-218 -23 c-3 -16 -7 -22 -10 -15 -4 13 4 42 11 42 2
0 2 -12 -1 -27z m128 2 c13 -14 21 -25 18 -25 -2 0 -15 11 -28 25 -13 14 -21
25 -18 25 2 0 15 -11 28 -25z m-161 -35 c0 -10 -3 -8 -9 5 -12 27 -12 43 0 25
5 -8 9 -22 9 -30z m232 -3 c-10 -9 -11 -8 -5 6 3 10 9 15 12 12 3 -3 0 -11 -7
-18z m-210 -34 c13 -16 12 -17 -3 -4 -17 13 -22 21 -14 21 2 0 10 -8 17 -17z
m70 -20 c13 -16 12 -17 -3 -4 -10 7 -18 15 -18 17 0 8 8 3 21 -13z m39 -20
c-1 -21 -16 -30 -37 -22 -31 11 -29 17 3 11 19 -3 25 -1 20 7 -4 6 -2 11 3 11
6 0 11 -3 11 -7z"/>
<path d="M7206 2429 l-26 -21 56 -79 c40 -57 54 -85 49 -99 -8 -25 -58 -52
-79 -44 -9 3 -38 37 -66 75 -28 38 -54 69 -58 69 -4 -1 -17 -9 -30 -20 l-23
-19 56 -81 c83 -118 138 -139 201 -76 19 19 34 41 34 49 0 8 7 20 15 27 13 11
14 10 9 -5 -7 -17 -6 -17 24 0 26 16 29 21 20 39 -21 40 -30 48 -41 34 -6 -9
-7 -8 -3 5 3 11 -13 44 -47 92 -28 41 -55 74 -58 75 -4 0 -18 -9 -33 -21z m45
-16 c13 -17 13 -17 -6 -3 -11 8 -22 16 -24 17 -2 2 0 3 6 3 6 0 17 -8 24 -17z
m-6 -59 c9 -15 12 -23 6 -20 -11 7 -35 46 -28 46 3 0 12 -12 22 -26z m76 -36
c16 -29 2 -21 -22 15 -17 23 -18 28 -6 18 10 -8 23 -23 28 -33z m-32 -32 c-3
-3 -11 5 -18 17 -13 21 -12 21 5 5 10 -10 16 -20 13 -22z m-188 7 c13 -16 12
-17 -3 -5 -24 19 -41 7 -28 -19 6 -10 8 -19 6 -19 -3 0 -10 10 -17 21 -9 17
-8 23 2 30 20 12 25 11 40 -8z m39 -55 c15 -21 17 -28 6 -19 -16 13 -41 51
-33 51 2 0 14 -15 27 -32z m173 -11 c3 -8 -1 -14 -8 -14 -7 0 -11 6 -8 14 3 7
6 13 8 13 2 0 5 -6 8 -13z m-167 -64 c15 -20 23 -33 16 -29 -13 8 -56 66 -49
66 3 0 17 -17 33 -37z m144 32 c0 -2 -10 -9 -22 -15 -22 -11 -22 -10 -4 4 21
17 26 19 26 11z m20 -4 c0 -18 -52 -71 -68 -70 -13 0 -11 3 5 9 11 5 29 22 39
39 19 33 24 37 24 22z m-77 -28 c-7 -2 -19 -2 -25 0 -7 3 -2 5 12 5 14 0 19
-2 13 -5z"/>
<path d="M3303 2208 c-16 -21 -123 -209 -123 -216 0 -4 12 -15 25 -25 l25 -18
35 56 c43 66 54 92 36 80 -10 -6 -11 -3 -2 14 14 25 23 28 14 4 -6 -16 -4 -16
15 1 27 23 69 15 81 -17 10 -26 8 -31 -43 -121 l-39 -69 22 -19 c13 -10 27
-18 32 -18 13 0 51 79 43 92 -4 6 -3 8 4 4 6 -3 20 11 33 34 27 48 61 61 89
35 29 -26 25 -48 -20 -130 -22 -40 -40 -77 -40 -82 0 -12 48 -35 59 -29 4 3
29 47 55 99 41 79 48 100 42 129 -10 52 -46 81 -100 80 -36 0 -46 4 -51 19
-10 29 -59 59 -97 58 l-33 -1 30 -8 30 -9 -30 2 c-24 2 -30 7 -30 25 0 35 -42
55 -62 30z m-23 -78 c-6 -11 -13 -20 -16 -20 -2 0 0 9 6 20 6 11 13 20 16 20
2 0 0 -9 -6 -20z m199 -24 c-3 -3 -11 5 -18 17 -13 21 -12 21 5 5 10 -10 16
-20 13 -22z m-219 -13 c0 -5 -10 -19 -21 -33 l-21 -25 18 33 c18 32 24 38 24
25z m266 -41 c-10 -2 -22 0 -28 6 -6 6 0 7 19 4 21 -5 23 -7 9 -10z m103 -31
c0 -14 -1 -14 -6 -1 -3 8 -13 24 -22 35 -16 20 -16 20 7 1 12 -11 22 -26 21
-35z m-199 17 c0 -7 -9 -24 -21 -38 l-20 -25 18 37 c19 41 23 45 23 26z m60 8
c0 -2 -7 -7 -16 -10 -8 -3 -12 -2 -9 4 6 10 25 14 25 6z m-241 -41 c-18 -30
-24 -34 -38 -23 -9 7 -17 12 -18 13 -1 0 6 9 14 20 14 18 15 18 9 2 -11 -34 6
-39 25 -8 10 17 21 31 24 31 2 0 -5 -16 -16 -35z m372 -48 c-10 -9 -11 -8 -5
6 3 10 9 15 12 12 3 -3 0 -11 -7 -18z m-254 -37 c-7 -17 -13 -26 -15 -21 -3
10 15 51 22 51 3 0 -1 -14 -7 -30z m34 -3 c-10 -9 -11 -8 -5 6 3 10 9 15 12
12 3 -3 0 -11 -7 -18z m167 -2 c-6 -14 -13 -23 -15 -21 -5 5 15 46 22 46 3 0
-1 -11 -7 -25z m42 5 c-6 -11 -13 -20 -16 -20 -2 0 0 9 6 20 6 11 13 20 16 20
2 0 0 -9 -6 -20z m-79 -63 c-10 -9 -11 -8 -5 6 3 10 9 15 12 12 3 -3 0 -11 -7
-18z m24 -38 c-9 -17 -19 -29 -22 -26 -5 5 25 57 33 57 3 0 -3 -14 -11 -31z
m-35 0 c0 -11 -4 -18 -10 -14 -5 3 -7 12 -3 20 7 21 13 19 13 -6z"/>
<path d="M6860 2198 c-62 -32 -85 -68 -84 -131 1 -97 56 -157 145 -157 115 0
184 123 129 231 -24 46 -72 79 -115 79 -17 0 -51 -10 -75 -22z m53 -5 c-7 -2
-19 -2 -25 0 -7 3 -2 5 12 5 14 0 19 -2 13 -5z m85 -9 c12 -8 27 -25 33 -37 9
-18 7 -18 -13 4 -12 15 -32 32 -43 38 -11 6 -15 11 -10 11 6 0 21 -7 33 -16z
m-148 -7 c0 -2 -12 -14 -27 -28 l-28 -24 24 28 c23 25 31 32 31 24z m127 -21
c0 -8 -6 -12 -15 -9 -11 5 -11 7 0 14 7 5 13 9 14 9 0 0 1 -6 1 -14z m2 -42
c27 -34 27 -85 2 -108 -29 -26 -87 -25 -113 2 -31 30 -30 88 1 113 35 28 85
25 110 -7z m-152 -66 c-3 -7 -5 -2 -5 12 0 14 2 19 5 13 2 -7 2 -19 0 -25z
m20 -93 c15 -10 46 -22 68 -26 l40 -6 -35 -2 c-64 -2 -131 60 -129 121 0 15 5
7 15 -22 8 -26 25 -53 41 -65z m174 82 c-10 -9 -11 -8 -5 6 3 10 9 15 12 12 3
-3 0 -11 -7 -18z m32 8 c-3 -9 -8 -14 -10 -11 -3 3 -2 9 2 15 9 16 15 13 8 -4z
m-194 -49 c9 -11 9 -16 -1 -22 -7 -4 -10 -4 -6 1 4 4 3 14 -3 22 -6 7 -9 13
-6 13 2 0 10 -6 16 -14z m169 -18 c-8 -12 -25 -29 -39 -37 -17 -11 -14 -5 11
21 40 42 48 47 28 16z m-95 -15 c-7 -2 -19 -2 -25 0 -7 3 -2 5 12 5 14 0 19
-2 13 -5z"/>
<path d="M6375 2078 c-11 -6 -21 -12 -23 -13 -3 -3 130 -321 149 -356 9 -18
12 -18 39 -4 17 9 30 20 30 25 0 6 17 10 38 10 43 0 94 28 118 66 41 62 9 182
-57 217 -65 34 -154 5 -179 -58 -7 -17 -14 -8 -41 53 -33 74 -40 79 -74 60z
m61 -63 c8 -19 12 -35 9 -35 -3 0 -12 18 -21 40 -15 37 -44 56 -44 28 0 -6 -3
-8 -7 -4 -5 4 1 14 12 22 22 16 23 14 51 -51z m-36 -20 c0 -5 -5 -3 -10 5 -5
8 -10 20 -10 25 0 6 5 3 10 -5 5 -8 10 -19 10 -25z m223 28 c3 -5 -11 -9 -32
-10 -27 -1 -31 1 -16 7 26 11 43 12 48 3z m-85 -33 c-7 -11 -17 -20 -22 -20
-5 0 -1 9 9 20 10 11 20 20 22 20 2 0 -2 -9 -9 -20z m172 -30 c12 -23 19 -57
19 -82 l-1 -43 -8 52 c-4 29 -17 69 -29 88 -12 20 -16 33 -11 30 6 -4 19 -24
30 -45z m-59 1 c-8 -5 -6 -13 4 -27 20 -26 19 -77 -2 -103 -10 -11 -32 -24
-50 -27 -27 -5 -37 -1 -63 24 -39 40 -38 66 5 109 30 30 39 34 66 28 22 -5 29
-4 25 4 -5 7 -1 8 9 4 11 -4 13 -8 6 -12z m-120 -15 c-13 -14 -27 -40 -32 -58
l-8 -33 2 35 c1 23 11 43 27 57 33 30 39 29 11 -1z m-101 -8 c0 -19 -2 -20
-10 -8 -13 19 -13 30 0 30 6 0 10 -10 10 -22z m257 -30 c-3 -8 -6 -5 -6 6 -1
11 2 17 5 13 3 -3 4 -12 1 -19z m-233 -38 l7 -25 -15 25 c-17 28 -21 50 -7 35
5 -6 12 -21 15 -35z m238 -81 c-18 -16 -38 -29 -45 -29 -6 0 3 9 21 20 18 11
35 27 39 35 3 9 8 13 12 10 3 -4 -9 -20 -27 -36z m-79 -6 c-7 -2 -21 -2 -30 0
-10 3 -4 5 12 5 17 0 24 -2 18 -5z m14 -29 c-3 -3 -12 -4 -19 -1 -8 3 -5 6 6
6 11 1 17 -2 13 -5z"/>
<path d="M3741 1962 c-42 -21 -81 -89 -81 -141 0 -40 29 -102 51 -110 11 -3
11 -1 -1 15 -14 18 -14 18 2 5 10 -7 15 -17 12 -22 -8 -13 58 -39 98 -39 70 0
138 79 138 160 0 58 -28 103 -79 130 -49 25 -95 26 -140 2z m14 -17 c-11 -8
-31 -24 -44 -37 l-23 -23 11 22 c6 13 24 29 39 37 34 19 43 20 17 1z m105 11
c0 -7 -60 -12 -70 -6 -6 4 7 7 30 8 22 1 40 0 40 -2z m61 -43 c13 -17 12 -17
-8 0 -16 14 -26 16 -38 9 -16 -8 -15 -11 6 -26 13 -9 18 -16 12 -16 -7 0 -9
-13 -6 -37 9 -71 -67 -118 -125 -77 -28 19 -30 82 -4 114 19 24 62 30 97 15
18 -8 18 -7 6 8 -11 14 -11 18 3 23 9 3 13 11 10 16 -11 17 31 -9 47 -29z m28
-87 c1 -42 -5 -29 -12 24 -4 30 -3 38 3 25 5 -11 9 -33 9 -49z m-266 -6 c3
-11 1 -20 -4 -20 -5 0 -9 9 -9 20 0 11 2 20 4 20 2 0 6 -9 9 -20z m34 -12 c-3
-8 -6 -5 -6 6 -1 11 2 17 5 13 3 -3 4 -12 1 -19z m193 -7 c0 -5 -9 -19 -20
-32 l-20 -24 17 32 c19 34 23 39 23 24z m-176 -27 c3 -8 2 -12 -4 -9 -6 3 -10
10 -10 16 0 14 7 11 14 -7z m206 8 c0 -5 -7 -17 -15 -28 -14 -18 -14 -17 -4 9
12 27 19 34 19 19z m-246 -18 c3 -8 2 -12 -4 -9 -6 3 -10 10 -10 16 0 14 7 11
14 -7z m91 -32 c-3 -3 -11 0 -18 7 -9 10 -8 11 6 5 10 -3 15 -9 12 -12z m75
13 c0 -2 -10 -9 -22 -15 -22 -11 -22 -10 -4 4 21 17 26 19 26 11z m30 -35
c-14 -11 -32 -20 -40 -20 -8 0 -1 9 15 19 39 26 57 26 25 1z m-75 -20 c13 -5
14 -9 5 -9 -8 0 -24 4 -35 9 -13 5 -14 9 -5 9 8 0 24 -4 35 -9z"/>
<path d="M6050 1944 c-30 -8 -72 -19 -94 -25 l-38 -10 6 -57 c14 -120 19 -144
31 -149 7 -2 39 8 71 23 53 25 60 26 83 13 39 -22 41 -70 4 -99 -23 -18 -36
-21 -74 -17 -43 5 -47 4 -58 -21 -17 -36 6 -52 77 -52 98 0 162 52 162 133 0
108 -79 163 -177 122 -19 -8 -37 -15 -38 -15 -2 0 -5 15 -7 34 l-4 34 78 17
c80 19 88 27 72 69 -7 19 -21 19 -94 0z m77 -16 c-3 -8 -6 -5 -6 6 -1 11 2 17
5 13 3 -3 4 -12 1 -19z m-32 2 c-11 -5 -31 -8 -45 -8 -23 0 -22 1 5 8 42 11
65 11 40 0z m-95 -20 c-8 -5 -24 -9 -35 -9 -16 1 -16 2 5 9 35 11 48 11 30 0z
m93 -17 c-7 -2 -19 -2 -25 0 -7 3 -2 5 12 5 14 0 19 -2 13 -5z m-46 -9 c-3 -3
-12 -4 -19 -1 -8 3 -5 6 6 6 11 1 17 -2 13 -5z m-100 -61 c-3 -10 -5 -4 -5 12
0 17 2 24 5 18 2 -7 2 -21 0 -30z m199 -84 c3 -6 -5 -3 -20 6 -14 10 -26 19
-26 22 0 7 39 -17 46 -28z m-176 -9 c5 0 21 5 37 10 26 10 27 9 8 -5 -24 -19
-59 -16 -61 5 0 9 1 10 3 3 3 -7 8 -13 13 -13z m230 -84 c-6 -19 -17 -40 -25
-46 -8 -7 -6 3 6 27 10 20 19 46 20 58 0 11 3 14 6 8 2 -7 0 -28 -7 -47z m-90
-36 c-8 -5 -36 -10 -62 -10 -45 0 -63 -12 -35 -23 6 -3 2 -6 -11 -6 -19 -1
-21 2 -12 18 8 15 23 21 63 24 28 2 57 4 62 5 6 1 3 -3 -5 -8z m15 -35 c-16
-8 -46 -14 -65 -13 -30 0 -29 1 13 8 27 5 52 11 55 14 3 3 10 6 16 5 6 0 -2
-7 -19 -14z"/>
<path d="M4044 1868 c-17 -28 -81 -244 -75 -251 4 -4 20 -9 36 -10 26 -2 29 2
54 74 14 42 32 84 40 93 21 24 58 20 77 -10 16 -24 16 -29 -9 -112 -28 -93
-26 -102 24 -102 25 0 27 6 54 106 26 100 27 107 12 139 -20 42 -92 74 -126
56 -17 -9 -21 -9 -21 3 0 24 -53 36 -66 14z m3 -50 c-3 -8 -6 -5 -6 6 -1 11 2
17 5 13 3 -3 4 -12 1 -19z m182 -3 c15 -14 13 -14 -17 1 -18 9 -46 14 -62 12
-16 -3 -26 0 -23 5 8 14 83 1 102 -18z m-53 -16 c19 -22 19 -22 -3 -8 -13 8
-23 17 -23 21 0 12 6 9 26 -13z m71 -41 c-3 -7 -5 -2 -5 12 0 14 2 19 5 13 2
-7 2 -19 0 -25z m-227 -25 c-11 -17 -11 -17 -6 0 3 10 6 24 7 30 0 9 2 9 5 0
3 -7 0 -20 -6 -30z m43 7 c-3 -12 -8 -19 -11 -16 -5 6 5 36 12 36 2 0 2 -9 -1
-20z m144 -32 c-3 -8 -6 -5 -6 6 -1 11 2 17 5 13 3 -3 4 -12 1 -19z m-207 -38
c-7 -25 -6 -36 3 -42 9 -6 9 -8 0 -8 -6 0 -14 4 -17 8 -6 10 13 86 20 80 2 -2
-1 -20 -6 -38z m37 -12 c-3 -8 -6 -5 -6 6 -1 11 2 17 5 13 3 -3 4 -12 1 -19z
m156 -3 c-3 -9 -8 -14 -10 -11 -3 3 -2 9 2 15 9 16 15 13 8 -4z m8 -88 c-10
-9 -11 -8 -5 6 3 10 9 15 12 12 3 -3 0 -11 -7 -18z"/>
<path d="M4597 1863 c-3 -5 -11 -36 -18 -71 -7 -34 -17 -62 -21 -62 -4 0 -8 4
-8 10 0 17 -60 41 -102 42 -51 1 -86 -25 -115 -82 -27 -53 -29 -90 -6 -137 24
-51 67 -75 124 -70 29 2 53 -1 65 -10 29 -21 63 -16 69 10 3 12 23 98 46 191
22 92 39 169 37 171 -9 8 -67 15 -71 8z m52 -35 c-1 -17 -2 -19 -6 -5 -5 20
-29 23 -36 5 -3 -8 -6 -6 -6 5 -1 12 7 17 24 17 20 0 25 -5 24 -22z m-57 -70
c-6 -6 -7 0 -4 19 5 21 7 23 10 9 2 -10 0 -22 -6 -28z m45 10 c-3 -7 -5 -2 -5
12 0 14 2 19 5 13 2 -7 2 -19 0 -25z m-188 -7 c-65 -9 -93 -36 -110 -106 -6
-25 -7 -26 -8 -7 -3 61 60 123 123 121 l41 -2 -46 -6z m91 -27 c0 -2 -9 0 -20
6 -11 6 -20 13 -20 16 0 2 9 0 20 -6 11 -6 20 -13 20 -16z m-43 -10 c-3 -3
-12 -4 -19 -1 -8 3 -5 6 6 6 11 1 17 -2 13 -5z m-68 -7 c-2 -1 -12 -9 -22 -16
-15 -12 -17 -12 -11 3 3 9 13 16 22 16 8 0 13 -1 11 -3z m105 -13 c5 -14 4
-15 -9 -4 -17 14 -19 20 -6 20 5 0 12 -7 15 -16z m-17 -16 c48 -45 13 -128
-54 -128 -32 0 -73 42 -73 75 0 34 42 75 76 75 15 0 38 -10 51 -22z m100 0
c-3 -8 -6 -5 -6 6 -1 11 2 17 5 13 3 -3 4 -12 1 -19z m-10 -40 c-3 -8 -6 -5
-6 6 -1 11 2 17 5 13 3 -3 4 -12 1 -19z m-230 -40 c-3 -8 -6 -5 -6 6 -1 11 2
17 5 13 3 -3 4 -12 1 -19z m220 0 c-3 -8 -6 -5 -6 6 -1 11 2 17 5 13 3 -3 4
-12 1 -19z m-254 -28 c3 -11 1 -18 -4 -14 -5 3 -9 12 -9 20 0 20 7 17 13 -6z
m207 7 c0 -2 -10 -12 -22 -23 l-23 -19 19 23 c18 21 26 27 26 19z m37 -19 c-3
-8 -6 -5 -6 6 -1 11 2 17 5 13 3 -3 4 -12 1 -19z m-116 -26 c-18 -2 -37 0 -42
5 -5 5 11 6 34 3 41 -4 41 -5 8 -8z m-100 -9 c13 -16 12 -17 -3 -4 -17 13 -22
21 -14 21 2 0 10 -8 17 -17z m82 -30 c-7 -2 -19 -2 -25 0 -7 3 -2 5 12 5 14 0
19 -2 13 -5z m117 -15 c0 -4 -4 -8 -9 -8 -6 0 -12 4 -15 8 -3 5 1 9 9 9 8 0
15 -4 15 -9z"/>
<path d="M5600 1743 c-8 -3 -24 -13 -34 -22 -14 -12 -20 -13 -23 -3 -6 15 -59
16 -68 2 -11 -17 17 -271 30 -276 6 -3 23 -1 36 5 25 9 25 9 16 96 -8 76 -7
89 9 106 17 19 50 25 70 11 21 -14 32 -47 39 -120 8 -78 16 -89 57 -73 l25 9
-14 96 c-15 115 -31 150 -74 165 -34 12 -46 12 -69 4z m20 -20 c-8 -3 -24 -10
-35 -15 -20 -9 -20 -9 -1 6 11 9 27 16 35 15 14 0 14 -1 1 -6z m45 -3 c3 -6
-1 -7 -9 -4 -18 7 -21 14 -7 14 6 0 13 -4 16 -10z m-150 -10 c-3 -5 -14 -10
-23 -9 -14 0 -13 2 3 9 27 11 27 11 20 0z m190 -20 c17 -32 20 -66 6 -74 -4
-3 -6 6 -3 19 2 14 -3 36 -12 50 -16 25 -20 35 -11 35 2 0 11 -13 20 -30z
m-208 -87 c-3 -10 -5 -2 -5 17 0 19 2 27 5 18 2 -10 2 -26 0 -35z m40 15 c-3
-7 -5 -2 -5 12 0 14 2 19 5 13 2 -7 2 -19 0 -25z m162 -92 c2 -73 -5 -52 -12
34 -3 44 -2 63 3 45 4 -16 8 -52 9 -79z m28 47 c-3 -10 -5 -4 -5 12 0 17 2 24
5 18 2 -7 2 -21 0 -30z m-190 -10 c-3 -10 -5 -4 -5 12 0 17 2 24 5 18 2 -7 2
-21 0 -30z m-30 -50 c-2 -16 -4 -5 -4 22 0 28 2 40 4 28 2 -13 2 -35 0 -50z
m233 -4 c0 -21 -5 -29 -17 -29 -14 0 -15 2 -4 9 8 5 12 19 9 35 -3 14 -1 23 3
20 5 -3 9 -18 9 -35z m-190 -29 c0 -11 -4 -20 -9 -20 -5 0 -7 9 -4 20 3 11 7
20 9 20 2 0 4 -9 4 -20z"/>
<path d="M4746 1709 c-15 -9 -16 -13 -5 -21 10 -6 7 -7 -10 -3 -20 6 -23 4
-18 -9 4 -10 3 -15 -3 -11 -18 11 -43 -65 -37 -113 9 -80 71 -132 155 -132 59
0 81 13 75 45 -5 23 -10 25 -57 25 -56 0 -90 17 -99 51 -5 19 -3 20 26 15 18
-3 62 -8 98 -12 l66 -6 7 35 c9 49 -14 101 -56 127 -36 22 -111 27 -142 9z
m132 -19 c35 -21 55 -61 49 -94 -3 -16 -5 -15 -6 6 0 15 -6 30 -11 33 -6 4 -8
10 -5 15 9 14 -43 43 -89 51 l-41 6 35 2 c19 0 50 -8 68 -19z m-88 -17 c-8 -3
-26 -15 -40 -27 -13 -11 -19 -14 -12 -5 6 9 8 20 4 24 -4 5 -1 5 6 1 6 -4 12
-2 12 3 0 6 10 11 23 10 14 0 17 -2 7 -6z m91 -20 c13 -16 12 -17 -3 -4 -10 7
-18 15 -18 17 0 8 8 3 21 -13z m-15 -18 c9 -14 14 -28 11 -31 -7 -7 -127 6
-127 14 0 18 37 42 66 42 25 0 38 -7 50 -25z m-169 -47 c-3 -7 -5 -2 -5 12 0
14 2 19 5 13 2 -7 2 -19 0 -25z m162 -2 c-9 -10 -97 -17 -102 -9 -3 5 20 10
50 11 31 1 54 0 52 -2z m-2 -22 c-3 -3 -12 -4 -19 -1 -8 3 -5 6 6 6 11 1 17
-2 13 -5z m73 -4 c0 -5 -5 -10 -11 -10 -5 0 -7 5 -4 10 3 6 8 10 11 10 2 0 4
-4 4 -10z m-233 -32 c-3 -8 -6 -5 -6 6 -1 11 2 17 5 13 3 -3 4 -12 1 -19z
m113 -52 c0 -2 -9 -6 -20 -9 -11 -3 -18 -1 -14 4 5 9 34 13 34 5z m80 -16 c0
-17 -6 -20 -42 -18 l-43 1 38 4 c24 3 37 9 37 19 0 8 2 14 5 14 3 0 5 -9 5
-20z m-135 -8 c-3 -3 -11 0 -18 7 -9 10 -8 11 6 5 10 -3 15 -9 12 -12z"/>
<path d="M5246 1710 c-59 -18 -96 -76 -96 -150 0 -105 91 -169 198 -140 48 12
56 22 48 56 -6 21 -10 23 -34 17 -47 -12 -90 -8 -112 12 -11 10 -20 21 -20 25
0 4 42 11 94 15 81 6 95 9 99 26 13 50 -28 116 -86 138 -33 13 -51 13 -91 1z
m31 -16 c-3 -3 -12 -4 -19 -1 -8 3 -5 6 6 6 11 1 17 -2 13 -5z m46 -1 c-7 -2
-19 -2 -25 0 -7 3 -2 5 12 5 14 0 19 -2 13 -5z m-84 -6 c-2 -1 -15 -11 -29
-22 l-25 -20 19 23 c11 12 24 22 29 22 6 0 8 -1 6 -3z m142 -24 l24 -28 -30
25 c-16 14 -32 26 -34 28 -2 1 0 2 6 2 5 0 20 -12 34 -27z m-40 -10 c12 -16
12 -17 -1 -7 -8 6 -22 14 -30 17 -13 5 -12 6 1 6 9 1 23 -7 30 -16z m-1 -28
c13 -14 22 -25 19 -26 -2 0 -32 -2 -66 -5 -52 -4 -63 -2 -63 10 0 19 38 46 65
46 12 0 32 -11 45 -25z m-163 -27 c-3 -8 -6 -5 -6 6 -1 11 2 17 5 13 3 -3 4
-12 1 -19z m-10 -50 c-3 -7 -5 -2 -5 12 0 14 2 19 5 13 2 -7 2 -19 0 -25z
m198 22 c45 -8 42 -8 -28 -6 -43 2 -81 6 -84 10 -9 8 51 6 112 -4z m-188 -62
c-3 -8 -6 -5 -6 6 -1 11 2 17 5 13 3 -3 4 -12 1 -19z m161 -45 c-10 -2 -28 -2
-40 0 -13 2 -5 4 17 4 22 1 32 -1 23 -4z m47 -13 c-3 -5 -12 -10 -18 -10 -7 0
-6 4 3 10 19 12 23 12 15 0z m-92 -17 c-7 -2 -21 -2 -30 0 -10 3 -4 5 12 5 17
0 24 -2 18 -5z m50 0 c-7 -2 -19 -2 -25 0 -7 3 -2 5 12 5 14 0 19 -2 13 -5z"/>
</g>
</svg>
